<svg width="142" height="52" viewBox="0 0 142 52" fill="none" xmlns="http://www.w3.org/2000/svg">
<rect width="142" height="52" rx="12" fill="#21242D"/>
<path d="M37.2003 26.7249C37.1881 24.6388 38.1332 23.0666 40.0419 21.9073C38.9744 20.3779 37.3593 19.5367 35.2304 19.3746C33.2147 19.2156 31.0093 20.5492 30.2018 20.5492C29.3484 20.5492 27.3969 19.4297 25.8613 19.4297C22.6924 19.4786 19.3247 21.9562 19.3247 26.9971C19.3247 28.4868 19.5969 30.0253 20.1414 31.6098C20.8694 33.6959 23.4938 38.8071 26.2315 38.7245C27.663 38.6909 28.6754 37.709 30.5382 37.709C32.346 37.709 33.282 38.7245 34.8787 38.7245C37.6408 38.6848 40.0144 34.0385 40.7057 31.9463C37.0015 30.1997 37.2003 26.832 37.2003 26.7249ZM33.9855 17.3956C35.5363 15.5542 35.3956 13.878 35.3497 13.2754C33.9794 13.3549 32.3949 14.2083 31.4926 15.2575C30.4985 16.3831 29.9142 17.7749 30.0397 19.344C31.5201 19.4572 32.8721 18.6956 33.9855 17.3956Z" fill="white"/>
<path d="M59.5802 35.8563H57.6437L56.5829 32.7135H52.8958L51.8853 35.8563H50L53.653 25.1566H55.9093L59.5802 35.8563ZM56.2632 31.3949L55.3039 28.601C55.2024 28.3156 55.0122 27.6434 54.7317 26.5854H54.6976C54.5859 27.0404 54.406 27.7126 54.1587 28.601L53.2164 31.3949H56.2632Z" fill="white"/>
<path d="M68.9745 31.9039C68.9745 33.216 68.5985 34.2532 67.8464 35.0146C67.1727 35.6923 66.3362 36.0308 65.3377 36.0308C64.2599 36.0308 63.4856 35.6658 63.0141 34.9358H62.98V39H61.162V30.681C61.162 29.8561 61.139 29.0095 61.0946 28.1412H62.6934L62.7949 29.364H62.829C63.4353 28.4427 64.3554 27.9828 65.5901 27.9828C66.5554 27.9828 67.3612 28.3422 68.0058 29.0617C68.6522 29.7821 68.9745 30.7292 68.9745 31.9039ZM67.1224 31.9666C67.1224 31.2157 66.9434 30.5966 66.5835 30.1094C66.1904 29.6012 65.6626 29.3472 65.0009 29.3472C64.5524 29.3472 64.1448 29.4887 63.7807 29.7677C63.4157 30.0491 63.1769 30.4165 63.0652 30.8715C63.0089 31.0838 62.9808 31.2575 62.9808 31.3941V32.6805C62.9808 33.2417 63.1633 33.7153 63.5283 34.102C63.8932 34.4887 64.3673 34.6817 64.9506 34.6817C65.6353 34.6817 66.1682 34.4325 66.5494 33.9356C66.9314 33.4379 67.1224 32.7819 67.1224 31.9666Z" fill="white"/>
<path d="M78.3862 31.9039C78.3862 33.216 78.0102 34.2532 77.2572 35.0146C76.5844 35.6923 75.7479 36.0308 74.7494 36.0308C73.6716 36.0308 72.8973 35.6658 72.4266 34.9358H72.3925V39H70.5745V30.681C70.5745 29.8561 70.5515 29.0095 70.5072 28.1412H72.106L72.2075 29.364H72.2416C72.847 28.4427 73.7671 27.9828 75.0026 27.9828C75.9671 27.9828 76.7729 28.3422 77.4192 29.0617C78.063 29.7821 78.3862 30.7292 78.3862 31.9039ZM76.5341 31.9666C76.5341 31.2157 76.3542 30.5966 75.9944 30.1094C75.6012 29.6012 75.0751 29.3472 74.4126 29.3472C73.9632 29.3472 73.5564 29.4887 73.1915 29.7677C72.8265 30.0491 72.5886 30.4165 72.4769 30.8715C72.4215 31.0838 72.3925 31.2575 72.3925 31.3941V32.6805C72.3925 33.2417 72.575 33.7153 72.9382 34.102C73.3032 34.4879 73.7773 34.6817 74.3623 34.6817C75.047 34.6817 75.5799 34.4325 75.9611 33.9356C76.3431 33.4379 76.5341 32.7819 76.5341 31.9666Z" fill="white"/>
<path d="M88.9088 32.8559C88.9088 33.766 88.5737 34.5065 87.9009 35.0782C87.1616 35.7029 86.1324 36.0148 84.8098 36.0148C83.5888 36.0148 82.6098 35.7929 81.8688 35.3483L82.2901 33.9196C83.0882 34.3747 83.964 34.603 84.9181 34.603C85.6029 34.603 86.1358 34.4567 86.5187 34.1656C86.8998 33.8746 87.09 33.4838 87.09 32.9966C87.09 32.5624 86.9331 32.1966 86.6184 31.8999C86.3055 31.6033 85.7828 31.3275 85.0529 31.0726C83.066 30.3739 82.0735 29.3505 82.0735 28.0046C82.0735 27.125 82.4214 26.4038 83.1181 25.8426C83.8122 25.2806 84.7382 25 85.8962 25C86.9288 25 87.7867 25.1696 88.4714 25.5081L88.0169 26.9055C87.3773 26.5775 86.6543 26.4134 85.845 26.4134C85.2055 26.4134 84.7058 26.5622 84.3477 26.858C84.045 27.1226 83.8932 27.445 83.8932 27.8269C83.8932 28.2498 84.0663 28.5995 84.4142 28.8745C84.7169 29.1285 85.2669 29.4035 86.065 29.7002C87.0414 30.0708 87.7585 30.5042 88.2198 31.0011C88.6794 31.4963 88.9088 32.1162 88.9088 32.8559Z" fill="white"/>
<path d="M94.9193 29.4277H92.9154V33.1736C92.9154 34.1263 93.2684 34.6023 93.9762 34.6023C94.3011 34.6023 94.5705 34.5757 94.7837 34.5227L94.834 35.8244C94.4759 35.9506 94.0043 36.0141 93.4202 36.0141C92.7022 36.0141 92.1412 35.8075 91.7361 35.395C91.3328 34.9818 91.1298 34.2887 91.1298 33.3151V29.4261H89.9361V28.1397H91.1298V26.7271L92.9154 26.2189V28.1397H94.9193V29.4277Z" fill="white"/>
<path d="M103.961 31.9352C103.961 33.1211 103.601 34.0948 102.883 34.8562C102.13 35.6401 101.131 36.0308 99.8847 36.0308C98.6841 36.0308 97.7282 35.6554 97.0154 34.9044C96.3025 34.1535 95.9461 33.2056 95.9461 32.0631C95.9461 30.8675 96.3127 29.8883 97.0486 29.1269C97.7828 28.3647 98.7737 27.9836 100.019 27.9836C101.22 27.9836 102.186 28.359 102.915 29.1108C103.613 29.84 103.961 30.7815 103.961 31.9352ZM102.074 31.9907C102.074 31.2792 101.913 30.6689 101.587 30.16C101.206 29.5441 100.661 29.237 99.9547 29.237C99.2239 29.237 98.6688 29.5449 98.2876 30.16C97.961 30.6697 97.7999 31.2896 97.7999 32.0229C97.7999 32.7344 97.961 33.3447 98.2876 33.8528C98.6807 34.4687 99.2298 34.7758 99.9384 34.7758C100.633 34.7758 101.177 34.4622 101.571 33.8367C101.906 33.3181 102.074 32.7015 102.074 31.9907Z" fill="white"/>
<path d="M109.87 29.6487C109.69 29.6173 109.498 29.6012 109.297 29.6012C108.657 29.6012 108.163 29.8288 107.815 30.2846C107.512 30.6866 107.36 31.1948 107.36 31.8082V35.8564H105.543L105.56 30.5708C105.56 29.6816 105.537 28.872 105.492 28.142H107.076L107.142 29.6181H107.192C107.384 29.1108 107.687 28.7023 108.101 28.396C108.506 28.1203 108.944 27.9828 109.415 27.9828C109.583 27.9828 109.735 27.994 109.87 28.0141V29.6487Z" fill="white"/>
<path d="M118 31.6338C118 31.9409 117.979 32.1998 117.933 32.4113H112.48C112.501 33.1735 112.764 33.7564 113.271 34.1584C113.73 34.5177 114.325 34.6978 115.055 34.6978C115.862 34.6978 116.599 34.5764 117.262 34.3328L117.546 35.5227C116.772 35.8411 115.858 35.9995 114.803 35.9995C113.534 35.9995 112.538 35.6474 111.814 34.9439C111.09 34.2404 110.728 33.2957 110.728 32.1106C110.728 30.9472 111.065 29.9784 111.739 29.2057C112.445 28.3808 113.4 27.9683 114.6 27.9683C115.78 27.9683 116.672 28.3808 117.279 29.2057C117.759 29.861 118 30.6714 118 31.6338ZM116.266 31.1892C116.278 30.681 116.16 30.2421 115.913 29.8714C115.599 29.3946 115.115 29.1567 114.465 29.1567C113.87 29.1567 113.387 29.389 113.018 29.8553C112.715 30.226 112.535 30.6706 112.48 31.1884H116.266V31.1892Z" fill="white"/>
<path d="M55.1985 16.9664C55.1985 17.9775 54.8571 18.7387 54.1751 19.2499C53.5434 19.7215 52.6457 19.9578 51.4829 19.9578C50.9064 19.9578 50.4131 19.9354 50 19.8907V14.3659C50.5388 14.2886 51.1192 14.2491 51.7461 14.2491C52.8537 14.2491 53.6885 14.463 54.2515 14.8908C54.8822 15.3745 55.1985 16.0661 55.1985 16.9664ZM54.1296 16.9913C54.1296 16.3358 53.9342 15.8332 53.5434 15.4827C53.1526 15.1331 52.5819 14.9578 51.8302 14.9578C51.511 14.9578 51.2392 14.9767 51.0138 15.0162V19.2164C51.1386 19.2335 51.3669 19.2413 51.6987 19.2413C52.4745 19.2413 53.0733 19.0497 53.495 18.6665C53.9168 18.2834 54.1296 17.725 54.1296 16.9913Z" fill="white"/>
<path d="M60.8663 17.8497C60.8663 18.4725 60.6661 18.9828 60.2656 19.3832C59.8458 19.7947 59.2895 20 58.595 20C57.9256 20 57.3926 19.8033 56.995 19.4081C56.5984 19.0138 56.4001 18.5163 56.4001 17.9167C56.4001 17.2896 56.6042 16.775 57.0143 16.3755C57.4245 15.976 57.9759 15.7758 58.6704 15.7758C59.3398 15.7758 59.8777 15.9726 60.2849 16.3669C60.6719 16.75 60.8663 17.2449 60.8663 17.8497ZM59.8148 17.8789C59.8148 17.5052 59.7239 17.1847 59.543 16.9176C59.3302 16.5945 59.0274 16.433 58.6337 16.433C58.2264 16.433 57.9169 16.5945 57.704 16.9176C57.5222 17.1847 57.4322 17.5103 57.4322 17.8952C57.4322 18.2689 57.5231 18.5894 57.704 18.8565C57.9236 19.1796 58.2293 19.3411 58.624 19.3411C59.0109 19.3411 59.3147 19.177 59.5333 18.848C59.721 18.5756 59.8148 18.2526 59.8148 17.8789Z" fill="white"/>
<path d="M68.4661 15.8582L67.0392 19.908H66.1106L65.5195 18.1495C65.3696 17.7105 65.2477 17.274 65.1529 16.8411H65.1345C65.0465 17.2861 64.9246 17.7216 64.7679 18.1495L64.1401 19.908H63.2008L61.8591 15.8582H62.9009L63.4165 17.7835C63.5413 18.2388 63.6438 18.6726 63.7261 19.0833H63.7444C63.8199 18.7448 63.9447 18.3135 64.1207 17.7921L64.7679 15.8591H65.594L66.2141 17.7508C66.364 18.2122 66.4859 18.6563 66.5797 19.0842H66.6078C66.6765 18.6675 66.78 18.2233 66.9174 17.7508L67.4707 15.8591H68.4661V15.8582Z" fill="white"/>
<path d="M73.7213 19.9081H72.7075V17.5885C72.7075 16.8737 72.4019 16.5163 71.7886 16.5163C71.4877 16.5163 71.2449 16.6143 71.0563 16.811C70.8696 17.0077 70.7748 17.2397 70.7748 17.5052V19.9072H69.761V17.0155C69.761 16.6598 69.7484 16.2741 69.7243 15.8566H70.6152L70.6626 16.4897H70.6906C70.8086 16.293 70.9847 16.1306 71.2159 16.0009C71.4906 15.8497 71.7982 15.7732 72.1349 15.7732C72.5605 15.7732 72.9146 15.8952 73.1961 16.1401C73.5462 16.4399 73.7213 16.8875 73.7213 17.482V19.9081Z" fill="white"/>
<path d="M76.5168 19.908H75.504V14H76.5168V19.908Z" fill="white"/>
<path d="M82.4854 17.8497C82.4854 18.4725 82.2851 18.9828 81.8846 19.3832C81.4648 19.7947 80.9076 20 80.214 20C79.5436 20 79.0106 19.8033 78.614 19.4081C78.2174 19.0138 78.0191 18.5163 78.0191 17.9167C78.0191 17.2896 78.2232 16.775 78.6334 16.3755C79.0435 15.976 79.5949 15.7758 80.2885 15.7758C80.9589 15.7758 81.4957 15.9726 81.904 16.3669C82.2909 16.75 82.4854 17.2449 82.4854 17.8497ZM81.4329 17.8789C81.4329 17.5052 81.3419 17.1847 81.161 16.9176C80.9492 16.5945 80.6454 16.433 80.2527 16.433C79.8445 16.433 79.5349 16.5945 79.3231 16.9176C79.1412 17.1847 79.0513 17.5103 79.0513 17.8952C79.0513 18.2689 79.1422 18.5894 79.3231 18.8565C79.5427 19.1796 79.8484 19.3411 80.243 19.3411C80.63 19.3411 80.9328 19.177 81.1514 18.848C81.34 18.5756 81.4329 18.2526 81.4329 17.8789Z" fill="white"/>
<path d="M87.3918 19.9081H86.4815L86.4061 19.4416H86.378C86.0665 19.8136 85.6225 20 85.046 20C84.6155 20 84.2673 19.8771 84.0051 19.6332C83.7672 19.4115 83.6482 19.1357 83.6482 18.8084C83.6482 18.3136 83.8803 17.9365 84.3476 17.6753C84.8138 17.4141 85.4697 17.2861 86.3142 17.2921V17.2165C86.3142 16.683 85.9988 16.4167 85.3671 16.4167C84.9173 16.4167 84.5207 16.5172 84.1783 16.7165L83.9722 16.1255C84.3959 15.8927 84.9193 15.7758 85.5364 15.7758C86.7282 15.7758 87.326 16.3342 87.326 17.4511V18.9425C87.326 19.3471 87.3483 19.6692 87.3918 19.9081ZM86.3393 18.5163V17.8918C85.2211 17.8746 84.6619 18.1469 84.6619 18.7079C84.6619 18.9193 84.7258 19.0773 84.8564 19.183C84.987 19.2887 85.1534 19.3411 85.3517 19.3411C85.5742 19.3411 85.7821 19.2784 85.9717 19.1538C86.1623 19.0284 86.2794 18.8694 86.3229 18.6744C86.3335 18.6306 86.3393 18.5773 86.3393 18.5163Z" fill="white"/>
<path d="M93.1523 19.908H92.2526L92.2052 19.2577H92.1772C91.8899 19.7525 91.4004 19.9999 90.7126 19.9999C90.1631 19.9999 89.7056 19.8084 89.3428 19.4252C88.9801 19.042 88.7992 18.5446 88.7992 17.9338C88.7992 17.2783 88.9956 16.7474 89.3902 16.3419C89.7723 15.9639 90.2405 15.7749 90.7977 15.7749C91.4101 15.7749 91.8386 15.9579 92.0824 16.3247H92.1017V14H93.1165V18.817C93.1165 19.2113 93.1281 19.5747 93.1523 19.908ZM92.1017 18.2001V17.5249C92.1017 17.408 92.092 17.3135 92.0737 17.2414C92.0166 17.0249 91.8937 16.8428 91.707 16.6958C91.5184 16.5489 91.2911 16.4751 91.0289 16.4751C90.6507 16.4751 90.3547 16.6082 90.137 16.8754C89.9213 17.1426 89.812 17.4836 89.812 17.9003C89.812 18.3006 89.9155 18.6254 90.1235 18.8754C90.3431 19.1417 90.6391 19.2749 91.0096 19.2749C91.3423 19.2749 91.6084 19.164 91.8105 18.9415C92.0059 18.7362 92.1017 18.4888 92.1017 18.2001Z" fill="white"/>
<path d="M101.823 17.8497C101.823 18.4725 101.623 18.9828 101.222 19.3832C100.802 19.7947 100.247 20 99.5517 20C98.8833 20 98.3503 19.8033 97.9517 19.4081C97.5551 19.0138 97.3568 18.5163 97.3568 17.9167C97.3568 17.2896 97.5609 16.775 97.9711 16.3755C98.3812 15.976 98.9326 15.7758 99.6281 15.7758C100.297 15.7758 100.835 15.9726 101.242 16.3669C101.629 16.75 101.823 17.2449 101.823 17.8497ZM100.772 17.8789C100.772 17.5052 100.682 17.1847 100.501 16.9176C100.287 16.5945 99.9851 16.433 99.5904 16.433C99.1841 16.433 98.8746 16.5945 98.6608 16.9176C98.4789 17.1847 98.3889 17.5103 98.3889 17.8952C98.3889 18.2689 98.4799 18.5894 98.6608 18.8565C98.8804 19.1796 99.186 19.3411 99.5807 19.3411C99.9677 19.3411 100.272 19.177 100.491 18.848C100.678 18.5756 100.772 18.2526 100.772 17.8789Z" fill="white"/>
<path d="M107.274 19.9081H106.261V17.5885C106.261 16.8737 105.955 16.5163 105.341 16.5163C105.04 16.5163 104.797 16.6143 104.61 16.811C104.422 17.0077 104.328 17.2397 104.328 17.5052V19.9072H103.313V17.0155C103.313 16.6598 103.302 16.2741 103.278 15.8566H104.168L104.215 16.4897H104.243C104.362 16.293 104.538 16.1306 104.768 16.0009C105.044 15.8497 105.351 15.7732 105.688 15.7732C106.113 15.7732 106.467 15.8952 106.748 16.1401C107.1 16.4399 107.274 16.8875 107.274 17.482V19.9081Z" fill="white"/>
<path d="M114.096 16.5327H112.98V18.5C112.98 19 113.178 19.25 113.571 19.25C113.753 19.25 113.904 19.2363 114.023 19.2079L114.049 19.8909C113.849 19.9579 113.585 19.9914 113.261 19.9914C112.861 19.9914 112.549 19.8832 112.324 19.6667C112.098 19.4502 111.985 19.0859 111.985 18.5747V16.5327H111.319V15.8583H111.985V15.116L112.979 14.8497V15.8574H114.095V16.5327H114.096Z" fill="white"/>
<path d="M119.463 19.908H118.449V17.6056C118.449 16.8797 118.143 16.5163 117.531 16.5163C117.06 16.5163 116.739 16.7268 116.563 17.1477C116.533 17.2362 116.516 17.3445 116.516 17.4716V19.9071H115.503V14H116.516V16.4407H116.535C116.854 15.9965 117.312 15.7749 117.905 15.7749C118.325 15.7749 118.672 15.8969 118.948 16.1417C119.291 16.4467 119.463 16.9003 119.463 17.5V19.908Z" fill="white"/>
<path d="M125 17.6915C125 17.8531 124.986 17.9888 124.962 18.0996H121.922C121.935 18.5 122.081 18.8049 122.362 19.0163C122.619 19.2053 122.951 19.2998 123.357 19.2998C123.807 19.2998 124.217 19.2362 124.587 19.1082L124.746 19.7336C124.313 19.9003 123.804 19.9836 123.215 19.9836C122.509 19.9836 121.953 19.7989 121.55 19.4295C121.146 19.0601 120.946 18.5644 120.946 17.9424C120.946 17.3316 121.133 16.823 121.509 16.4175C121.902 15.9845 122.433 15.768 123.103 15.768C123.759 15.768 124.257 15.9845 124.594 16.4175C124.866 16.7611 125 17.1864 125 17.6915ZM124.033 17.4587C124.04 17.1915 123.974 16.9613 123.836 16.7672C123.66 16.5172 123.392 16.3917 123.03 16.3917C122.699 16.3917 122.429 16.5137 122.223 16.7586C122.054 16.9536 121.955 17.1864 121.922 17.4587H124.033Z" fill="white"/>
</svg>
