<svg width="41" height="48" viewBox="0 0 41 48" fill="none" xmlns="http://www.w3.org/2000/svg">
<path d="M39.344 7.77243L20.969 0.143332C20.5087 -0.0477305 19.9912 -0.0478242 19.531 0.143332L1.15603 7.77243C0.456188 8.06305 0 8.7463 0 9.50408V18.7783C0 31.5483 7.71834 43.0352 19.5414 47.861C19.9956 48.0463 20.5043 48.0463 20.9586 47.861C32.7815 43.0353 40.5 31.5484 40.5 18.7783V9.50408C40.5 8.7463 40.0439 8.06305 39.344 7.77243ZM36.75 18.7783C36.75 29.6341 30.375 39.6276 20.25 44.0884C10.3956 39.7467 3.75 29.9283 3.75 18.7783V10.7558L20.25 3.90514L36.75 10.7558V18.7783ZM18.1776 25.0984L26.2367 17.0393C26.9689 16.3071 28.156 16.3071 28.8883 17.0393C29.6206 17.7716 29.6205 18.9588 28.8882 19.691L19.5034 29.0758C18.771 29.8082 17.5838 29.8079 16.8517 29.0758L11.6117 23.8357C10.8794 23.1035 10.8794 21.9163 11.6117 21.1841C12.344 20.4519 13.5311 20.4518 14.2633 21.1841L18.1776 25.0984Z" fill="#FCBE2A"/>
</svg>
