<svg width="48" height="48" viewBox="0 0 48 48" fill="none" xmlns="http://www.w3.org/2000/svg">
<path fill-rule="evenodd" clip-rule="evenodd" d="M24 0C10.7341 0 0 10.735 0 24C0 37.2659 10.735 48 24 48C37.2659 48 48 37.265 48 24C48 10.7341 37.2649 0 24 0ZM24 44.25C12.8069 44.25 3.75 35.1923 3.75 24C3.75 12.8069 12.8077 3.75 24 3.75C35.1931 3.75 44.25 12.8077 44.25 24C44.25 35.1931 35.1922 44.25 24 44.25ZM24 20.0934C22.9644 20.0934 22.125 20.9329 22.125 21.9684V34.0428C22.125 35.0784 22.9644 35.9178 24 35.9178C25.0356 35.9178 25.875 35.0783 25.875 34.0427V21.9684C25.875 20.9329 25.0356 20.0934 24 20.0934ZM26.5312 15.2662C26.5312 16.6642 25.398 17.7975 24 17.7975C22.602 17.7975 21.4688 16.6642 21.4688 15.2662C21.4688 13.8683 22.602 12.735 24 12.735C25.398 12.735 26.5312 13.8683 26.5312 15.2662Z" fill="#F3537E"/>
</svg>
