<svg width="142" height="52" viewBox="0 0 142 52" fill="none" xmlns="http://www.w3.org/2000/svg">
<rect width="142" height="52" rx="12" fill="#21242D"/>
<path d="M35.3845 29.8161C38.2274 28.2407 40.3828 27.0403 40.5686 26.9471C41.1627 26.6281 41.7765 25.784 40.5686 25.1284C40.1786 24.9222 38.0787 23.7591 35.3845 22.2594L31.6499 26.0657L35.3843 29.8161H35.3845Z" fill="#FFD900"/>
<path d="M31.6498 26.0658L19.7578 38.1611C20.0368 38.1985 20.3519 38.1238 20.7236 37.9176C21.5037 37.4869 29.7725 32.9295 35.3847 29.817L31.6498 26.0658V26.0658Z" fill="#F43249"/>
<path d="M31.6501 26.0657L35.3845 22.2779C35.3845 22.2779 21.5603 14.6644 20.7237 14.2151C20.4089 14.0262 20.0557 13.9704 19.7397 14.0262L31.6501 26.0655V26.0657Z" fill="#00EE76"/>
<path d="M31.6501 26.0659L19.7396 14.0266C19.2562 14.1393 18.8477 14.5703 18.8477 15.4513V36.7359C18.8477 37.5428 19.1638 38.1239 19.7579 38.1797L31.6499 26.0657L31.6501 26.0659Z" fill="#00D3FF"/>
<path d="M74.286 28.8765C72.1847 28.8765 70.4486 30.3509 70.4486 32.3725C70.4486 34.3775 72.1665 35.8684 74.2862 35.8684C76.4057 35.8684 78.1234 34.394 78.1234 32.3725C78.1234 30.3509 76.4057 28.8765 74.286 28.8765ZM74.286 34.4773C73.1345 34.4773 72.1301 33.5988 72.1301 32.3568C72.1301 31.0976 73.1353 30.2364 74.286 30.2364C75.4367 30.2364 76.4419 31.0976 76.4419 32.3568C76.4419 33.5988 75.4367 34.4773 74.286 34.4773ZM65.9351 28.8765C63.8154 28.8765 62.0975 30.3509 62.0975 32.3725C62.0975 34.3775 63.8154 35.8684 65.9351 35.8684C68.0546 35.8684 69.7725 34.394 69.7725 32.3725C69.7725 30.3509 68.0546 28.8765 65.9349 28.8765H65.9351ZM65.9351 34.4773C64.7834 34.4773 63.7792 33.5988 63.7792 32.3568C63.7792 31.0976 64.7844 30.2364 65.9351 30.2364C67.0866 30.2364 68.091 31.0976 68.091 32.3568C68.091 33.5988 67.1038 34.4773 65.9351 34.4773ZM56.0125 29.9536V31.428H59.8862C59.7761 32.2563 59.4664 32.8694 59.0092 33.2839C58.443 33.7973 57.5658 34.361 56.0125 34.361C53.6183 34.361 51.7733 32.6048 51.7733 30.4342C51.7733 28.2635 53.6193 26.4742 56.0125 26.4742C57.3095 26.4742 58.2421 26.9383 58.9364 27.5349L60.087 26.4907C59.1182 25.646 57.8213 25 56.0125 25C52.7412 25 50 27.4352 50 30.4012C50 33.3673 52.7412 35.8025 56.0125 35.8025C57.7849 35.8025 59.101 35.2726 60.1607 34.2779C61.2387 33.3004 61.5677 31.9249 61.5677 30.815C61.5677 30.4672 61.5315 30.1523 61.476 29.887L56.0125 29.9536V29.9536ZM96.6162 31.0967C96.3053 30.3179 95.3191 28.8765 93.3448 28.8765C91.3708 28.8765 89.7447 30.2851 89.7447 32.3725C89.7447 34.3272 91.3708 35.8684 93.5277 35.8684C95.2819 35.8684 96.2871 34.8909 96.7071 34.3272L95.4101 33.5321C94.9711 34.1122 94.3867 34.4929 93.5277 34.4929C92.6688 34.4929 92.0661 34.1451 91.6818 33.4323L96.7799 31.494L96.6162 31.0967V31.0967ZM91.4262 32.2736C91.39 30.9311 92.5779 30.2355 93.4177 30.2355C94.094 30.2355 94.6422 30.5338 94.8429 30.9813L91.4262 32.2736V32.2736ZM87.2781 35.6367H88.9596V25.3971H87.2781V35.6367V35.6367ZM84.5377 29.6554H84.4831C84.0996 29.2408 83.3871 28.8765 82.4727 28.8765C80.5539 28.8765 78.8179 30.4177 78.8179 32.3725C78.8179 34.3272 80.5721 35.852 82.4727 35.852C83.3861 35.852 84.0988 35.4876 84.4831 35.0565H84.5377V35.5536C84.5377 36.8961 83.7514 37.608 82.4909 37.608C81.4675 37.608 80.8276 36.9289 80.5721 36.3653L79.1107 36.9289C79.5304 37.8569 80.6457 39 82.4909 39C84.4641 39 86.1274 37.9394 86.1274 35.3715V29.0917H84.5377V29.6554V29.6554ZM82.6189 34.4773C81.4674 34.4773 80.4994 33.5988 80.4994 32.3734C80.4994 31.1479 81.4682 30.2528 82.6189 30.2528C83.7524 30.2528 84.6658 31.1479 84.6658 32.3734C84.665 33.5823 83.7514 34.4773 82.6189 34.4773ZM104.456 25.3973H100.435V35.6367H102.117V31.7593H104.456C106.32 31.7593 108.147 30.5329 108.147 28.5783C108.147 26.6235 106.32 25.3971 104.456 25.3971V25.3973ZM104.51 30.3353H102.134V26.822H104.51C105.752 26.822 106.483 27.7664 106.483 28.5781C106.466 29.3734 105.753 30.3353 104.51 30.3353ZM114.854 28.86C113.647 28.86 112.386 29.3406 111.875 30.4342L113.355 30.9978C113.685 30.4342 114.269 30.252 114.891 30.252C115.768 30.252 116.645 30.7324 116.663 31.5771V31.6769C116.352 31.5113 115.713 31.2789 114.909 31.2789C113.301 31.2789 111.674 32.0907 111.674 33.5823C111.674 34.9577 112.99 35.8355 114.452 35.8355C115.585 35.8355 116.206 35.3715 116.589 34.825H116.644V35.6204H118.27V31.6932C118.252 29.8876 116.772 28.8598 114.854 28.8598V28.86ZM114.653 34.4607C114.104 34.4607 113.336 34.2118 113.336 33.5996C113.336 32.8042 114.286 32.506 115.109 32.506C115.84 32.506 116.187 32.6551 116.644 32.8538C116.516 33.7982 115.621 34.4607 114.653 34.4607V34.4607ZM124.136 29.0926L122.217 33.5163H122.163L120.172 29.0924H118.363L121.359 35.2889L119.66 38.752H121.414L126 29.0924H124.136L124.136 29.0926ZM109.079 35.6367H110.761V25.3971H109.079V35.6367Z" fill="white"/>
<path d="M52.9407 19.7446C52.4075 19.7446 51.916 19.6192 51.4664 19.3683C51.0168 19.1174 50.6587 18.7744 50.3921 18.3392C50.1307 17.8989 50 17.4099 50 16.8723C50 16.3347 50.1307 15.8483 50.3921 15.4131C50.6587 14.9728 51.0168 14.6272 51.4664 14.3763C51.916 14.1254 52.4075 14 52.9407 14C53.3642 14 53.7589 14.0742 54.1248 14.2227C54.4908 14.3712 54.7966 14.5786 55.0423 14.8448L54.4307 15.4438C54.2477 15.2442 54.0281 15.0906 53.772 14.983C53.521 14.8755 53.2413 14.8218 52.9329 14.8218C52.5721 14.8218 52.2349 14.9062 51.9213 15.0752C51.6076 15.2442 51.3566 15.4848 51.1684 15.7971C50.9802 16.1094 50.8861 16.4678 50.8861 16.8723C50.8861 17.2768 50.9802 17.6352 51.1684 17.9475C51.3566 18.2598 51.6076 18.5005 51.9213 18.6694C52.2349 18.8384 52.5748 18.9229 52.9407 18.9229C53.2753 18.9229 53.555 18.8742 53.7798 18.777C54.0046 18.6797 54.2059 18.5491 54.3836 18.3853C54.4986 18.2726 54.5953 18.1318 54.6738 17.9629C54.7574 17.7939 54.8123 17.6096 54.8384 17.4099H52.9329V16.6419H55.6697C55.6958 16.7853 55.7089 16.9338 55.7089 17.0874C55.7089 17.4355 55.654 17.7709 55.5442 18.0934C55.4344 18.4109 55.2593 18.6874 55.0188 18.9229C54.4908 19.4707 53.7981 19.7446 52.9407 19.7446Z" fill="white"/>
<path d="M56.5267 14.1229H59.9379V14.9446H57.405V16.4653H59.687V17.2794H57.405V18.8H59.9379V19.6218H56.5267V14.1229Z" fill="white"/>
<path d="M61.9707 14.9446H60.4023V14.1229H64.4174V14.9446H62.849V19.6218H61.9707V14.9446Z" fill="white"/>
<path d="M66.7135 14.1229H67.5918V19.6218H66.7135V14.1229Z" fill="white"/>
<path d="M69.8141 14.9446H68.2458V14.1229H72.2608V14.9446H70.6924V19.6218H69.8141V14.9446Z" fill="white"/>
<path d="M77.0308 19.7446C76.4871 19.7446 75.9931 19.6192 75.5487 19.3683C75.1043 19.1123 74.7541 18.7642 74.4979 18.3238C74.247 17.8835 74.1215 17.3997 74.1215 16.8723C74.1215 16.345 74.247 15.8637 74.4979 15.4285C74.7541 14.9882 75.1043 14.64 75.5487 14.384C75.9931 14.128 76.4871 14 77.0308 14C77.5745 14 78.066 14.128 78.5051 14.384C78.9495 14.64 79.2997 14.9882 79.5559 15.4285C79.8121 15.8637 79.9402 16.345 79.9402 16.8723C79.9402 17.3997 79.8121 17.8835 79.5559 18.3238C79.305 18.7642 78.9573 19.1123 78.5129 19.3683C78.0686 19.6192 77.5745 19.7446 77.0308 19.7446ZM77.0308 18.9229C77.402 18.9229 77.7418 18.8358 78.0503 18.6618C78.3587 18.4877 78.6018 18.247 78.7796 17.9398C78.9573 17.6275 79.0462 17.2717 79.0462 16.8723C79.0462 16.473 78.9573 16.1197 78.7796 15.8125C78.6018 15.5002 78.3587 15.257 78.0503 15.0829C77.7418 14.9088 77.402 14.8218 77.0308 14.8218C76.6596 14.8218 76.3198 14.9088 76.0114 15.0829C75.7029 15.257 75.4572 15.5002 75.2742 15.8125C75.0965 16.1197 75.0076 16.473 75.0076 16.8723C75.0076 17.2717 75.0965 17.6275 75.2742 17.9398C75.4572 18.247 75.7029 18.4877 76.0114 18.6618C76.3198 18.8358 76.6596 18.9229 77.0308 18.9229Z" fill="white"/>
<path d="M80.7478 14.1229H81.7907L84.3001 18.1242H84.3472L84.3001 17.0643V14.1229H85.1706V19.6218H84.2531L81.6182 15.4131H81.5712L81.6182 16.473V19.6218H80.7478V14.1229Z" fill="white"/>
</svg>
