<svg width="28" height="39" viewBox="0 0 28 39" fill="none" xmlns="http://www.w3.org/2000/svg">
<path d="M14 5.83325C12.6155 5.83325 11.2622 6.20958 10.111 6.91465C8.95987 7.61973 8.06266 8.62187 7.53285 9.79437C7.00303 10.9669 6.86441 12.257 7.13451 13.5017C7.4046 14.7465 8.07129 15.8898 9.05026 16.7872C10.0292 17.6846 11.2765 18.2957 12.6344 18.5433C13.9922 18.7909 15.3997 18.6638 16.6788 18.1781C17.9579 17.6925 19.0511 16.87 19.8203 15.8148C20.5895 14.7596 21 13.519 21 12.2499C21 10.5481 20.2625 8.91601 18.9497 7.71265C17.637 6.50929 15.8565 5.83325 14 5.83325ZM14 16.4269C13.0988 16.4269 12.2178 16.1819 11.4684 15.723C10.7191 15.264 10.135 14.6116 9.79014 13.8484C9.44526 13.0851 9.35502 12.2453 9.53084 11.435C9.70666 10.6248 10.1406 9.8805 10.7779 9.29634C11.4152 8.71217 12.2271 8.31436 13.111 8.15319C13.9949 7.99202 14.9112 8.07473 15.7438 8.39088C16.5764 8.70703 17.2881 9.2424 17.7888 9.9293C18.2895 10.6162 18.5567 11.4238 18.5567 12.2499C18.5535 13.3558 18.072 14.4153 17.2178 15.1963C16.3636 15.9772 15.2064 16.4157 14 16.4157V16.4269Z" fill="url(#paint0_linear_63_278)"/>
<path d="M13.9941 1.17016e-09C10.2938 0.00307524 6.74517 1.46303 4.12315 4.06099C1.50113 6.65896 0.0188294 10.1838 0 13.8657C0 19.3859 3.11243 24.0078 5.3933 27.3767L5.80908 27.9914C8.0784 31.2641 10.5129 34.4203 13.1031 37.448L14.0059 38.5L14.9088 37.448C17.4987 34.4201 19.9331 31.2639 22.2028 27.9914L22.6186 27.3649C24.8876 23.996 28 19.3859 28 13.8657C27.9812 10.1818 26.4972 6.65513 23.8726 4.05683C21.2481 1.45853 17.6964 -4.77037e-05 13.9941 1.17016e-09ZM20.6347 26.0055L20.207 26.632C18.1638 29.6818 15.4552 33.0979 13.9941 34.7883C12.5923 33.0979 9.82435 29.6818 7.78108 26.632L7.36529 26.0055C5.26262 22.8849 2.3759 18.6176 2.3759 13.8184C2.3759 12.3002 2.67641 10.7969 3.26028 9.39433C3.84415 7.99173 4.69994 6.71729 5.77878 5.64379C6.85763 4.57028 8.1384 3.71873 9.54798 3.13775C10.9576 2.55678 12.4683 2.25775 13.9941 2.25775C15.5198 2.25775 17.0306 2.55678 18.4401 3.13775C19.8497 3.71873 21.1305 4.57028 22.2093 5.64379C23.2882 6.71729 24.144 7.99173 24.7278 9.39433C25.3117 10.7969 25.6122 12.3002 25.6122 13.8184C25.6122 18.6649 22.7374 22.9321 20.6347 26.0055Z" fill="url(#paint1_linear_63_278)"/>
<defs>
<linearGradient id="paint0_linear_63_278" x1="21" y1="6.46233" x2="6.28004" y2="7.19242" gradientUnits="userSpaceOnUse">
<stop stop-color="#FFB800"/>
<stop offset="1" stop-color="#00CECE"/>
</linearGradient>
<linearGradient id="paint1_linear_63_278" x1="28" y1="1.88725" x2="-1.48012" y2="2.86203" gradientUnits="userSpaceOnUse">
<stop stop-color="#FFB800"/>
<stop offset="1" stop-color="#00CECE"/>
</linearGradient>
</defs>
</svg>
