<svg width="40" height="34" viewBox="0 0 40 34" fill="none" xmlns="http://www.w3.org/2000/svg">
<path d="M35.8594 8.875C37.4219 7.70312 38.8281 6.29688 39.9219 4.65625C38.5156 5.28125 36.875 5.75 35.2344 5.90625C36.9531 4.89062 38.2031 3.32812 38.8281 1.375C37.2656 2.3125 35.4688 3.01562 33.6719 3.40625C32.1094 1.76562 30 0.828125 27.6562 0.828125C23.125 0.828125 19.4531 4.5 19.4531 9.03125C19.4531 9.65625 19.5312 10.2812 19.6875 10.9062C12.8906 10.5156 6.79688 7.23438 2.73438 2.3125C2.03125 3.48438 1.64062 4.89062 1.64062 6.45312C1.64062 9.26562 3.04688 11.7656 5.3125 13.25C3.98438 13.1719 2.65625 12.8594 1.5625 12.2344V12.3125C1.5625 16.2969 4.375 19.5781 8.125 20.3594C7.5 20.5156 6.71875 20.6719 6.01562 20.6719C5.46875 20.6719 5 20.5938 4.45312 20.5156C5.46875 23.7969 8.51562 26.1406 12.1094 26.2188C9.29688 28.4062 5.78125 29.7344 1.95312 29.7344C1.25 29.7344 0.625 29.6562 0 29.5781C3.59375 31.9219 7.89062 33.25 12.5781 33.25C27.6562 33.25 35.8594 20.8281 35.8594 9.96875C35.8594 9.57812 35.8594 9.26562 35.8594 8.875Z" fill="url(#paint0_linear_63_281)"/>
<defs>
<linearGradient id="paint0_linear_63_281" x1="29" y1="-4.4804" x2="10.041" y2="-3.97989" gradientUnits="userSpaceOnUse">
<stop stop-color="#FFB800"/>
<stop offset="1" stop-color="#00CECE"/>
</linearGradient>
</defs>
</svg>
