<svg width="41" height="32" viewBox="0 0 41 32" fill="none" xmlns="http://www.w3.org/2000/svg">
<path d="M34.4533 0H6.08C4.46748 0 2.92101 0.632141 1.78079 1.75736C0.64057 2.88258 0 4.4087 0 6V26C0 27.5913 0.64057 29.1174 1.78079 30.2426C2.92101 31.3679 4.46748 32 6.08 32H34.4533C36.0658 32 37.6123 31.3679 38.7525 30.2426C39.8928 29.1174 40.5333 27.5913 40.5333 26V6C40.5333 4.4087 39.8928 2.88258 38.7525 1.75736C37.6123 0.632141 36.0658 0 34.4533 0ZM33.0955 4L20.2667 13.5L7.43787 4H33.0955ZM34.4533 28H6.08C5.54249 28 5.027 27.7893 4.64693 27.4142C4.26686 27.0391 4.05333 26.5304 4.05333 26V6.5L19.0507 17.6C19.4015 17.8596 19.8282 18 20.2667 18C20.7052 18 21.1319 17.8596 21.4827 17.6L36.48 6.5V26C36.48 26.5304 36.2665 27.0391 35.8864 27.4142C35.5063 27.7893 34.9908 28 34.4533 28Z" fill="url(#paint0_linear_20_1034)"/>
<defs>
<linearGradient id="paint0_linear_20_1034" x1="40.5333" y1="1.56862" x2="-2.04809" y2="4.02087" gradientUnits="userSpaceOnUse">
<stop stop-color="#FFB800"/>
<stop offset="1" stop-color="#00CECE"/>
</linearGradient>
</defs>
</svg>
