<svg width="491" height="438" viewBox="0 0 491 438" fill="none" xmlns="http://www.w3.org/2000/svg">
<path d="M374.576 279.024C378.115 276.541 381.76 274.221 385.631 272.233C405.544 262 424.185 251.498 439.738 235.38C458.159 216.288 471.071 190.505 471.073 163.453C471.075 136.401 456.519 108.667 432.552 97.4461C402.724 83.4817 368.601 96.7597 336.145 100.107C294.306 104.422 252.709 91.6867 211.422 82.8917C170.134 74.0967 125.262 69.6231 87.7649 88.9839C57.5737 104.572 35.3399 135.426 29.5291 169.798C23.7183 204.17 34.4676 241.247 57.6846 266.913C91.1825 303.945 143.872 313.918 192.729 316.28C228.732 318.021 264.845 316.769 300.601 312.54C316.73 310.632 331.827 307.351 346.069 299.328C356.316 293.556 365.058 285.701 374.576 279.024Z" stroke="#E6E6E6" stroke-width="2.5965" stroke-miterlimit="10"/>
<path d="M152.869 312.97C127.718 309.996 102.41 303.919 80.1877 290.601C57.965 277.283 38.9954 256.024 31.5942 230.014C24.1928 204.004 30.0407 173.355 49.0906 156.01C72.7985 134.424 107.923 137.858 138.793 132.198C178.586 124.903 213.492 101.28 249.191 81.5301C284.89 61.7801 325.078 45.2048 364.981 53.5635C397.108 60.2938 426.067 83.8781 440.832 115.338C455.596 146.797 455.818 185.388 441.411 216.417C420.625 261.187 374.725 285.188 330.282 300.823C297.531 312.345 263.86 321.019 229.702 326.733C217.146 328.833 204.331 330.534 191.683 328.545C179.035 326.556 166.405 320.446 158.579 309.503L152.869 312.97Z" fill="#E6E6E6"/>
<path d="M426.847 25.2261H258.539V187.105H426.847V25.2261Z" fill="#E6E6E6"/>
<g opacity="0.6">
<path opacity="0.6" d="M306.305 126.486C291.094 116.998 284.838 101.25 284.784 86.0545C284.739 73.2828 290.277 57.528 308.586 60.3335C320.895 62.2198 331.189 69.7432 342.985 73.0681C352.537 75.7598 362.677 74.9733 372.347 74.4971C387.506 73.7508 403.994 82.5619 405.597 92.6728C407.745 106.226 405.756 121.244 393.811 129.137C372.891 142.961 329.842 141.167 306.305 126.486Z" stroke="#1F3C88" stroke-width="2.5" stroke-miterlimit="10" stroke-dasharray="19.91 19.91"/>
</g>
<path d="M319.037 142.092C301.323 139.33 289.392 127.297 283.383 113.34C278.333 101.609 277.249 84.9446 295.191 80.345C307.253 77.253 319.674 80.1365 331.829 78.5685C341.671 77.2989 350.69 72.5986 359.399 68.3681C373.051 61.7367 388.879 58.9973 397.113 72.0478C404.436 83.6537 402.903 99.5934 395.01 111.539C381.187 132.459 346.445 146.367 319.037 142.092Z" fill="#708CD5"/>
<path d="M287.818 49.1501C291.703 49.1501 294.853 46.0003 294.853 42.1148C294.853 38.2294 291.703 35.0796 287.818 35.0796C283.932 35.0796 280.783 38.2294 280.783 42.1148C280.783 46.0003 283.932 49.1501 287.818 49.1501Z" fill="#EE6F57"/>
<path d="M289.346 45.1141L287.807 43.0361L286.256 45.1141H284.707L287.043 42.0703L284.807 39.1158H286.369L287.84 41.0815L289.312 39.1158H290.828L288.582 42.047L290.929 45.1138H289.346V45.1141Z" fill="white"/>
<path d="M305.94 49.1503C309.825 49.1503 312.975 46.0006 312.975 42.1151C312.975 38.2296 309.825 35.0798 305.94 35.0798C302.054 35.0798 298.904 38.2296 298.904 42.1151C298.904 46.0006 302.054 49.1503 305.94 49.1503Z" fill="#FBC343"/>
<path d="M308.771 41.3429H303.108V42.8873H308.771V41.3429Z" fill="white"/>
<path d="M370.18 124.601C352.575 134.683 344.029 131.914 341.258 130.349C338.496 131.914 329.95 134.683 312.345 124.601C295.48 114.934 305.311 94.1509 311.953 81.5054C315.561 74.6364 318.344 67.3873 324.673 62.436C330.626 57.7788 337.297 56.3405 345.12 56.7268C355.875 57.2578 362.547 63.663 365.846 71.3464C368.47 77.4584 371.728 83.1756 374.594 89.1607C377.28 94.7698 379.445 100.875 379.646 107.101C379.879 114.344 376.753 120.834 370.18 124.601Z" fill="#6F3428"/>
<path d="M374.376 123.375C363.593 111.244 343.736 113.775 341.623 114.084C339.51 113.775 319.653 111.244 308.869 123.375C300.75 132.509 300.855 168.968 300.855 168.968C300.855 168.069 338.627 167.804 341.623 167.785C344.619 167.804 382.391 168.069 382.391 168.968C382.391 168.968 382.496 132.509 374.376 123.375Z" fill="#EE6F57"/>
<path d="M324.893 86.7758C320.663 87.208 317.138 97.5163 328.584 97.7324L331.321 94.4903L324.893 86.7758Z" fill="#E28B6D"/>
<path d="M358.452 86.7758C363.223 87.0254 366.613 97.5163 355.167 97.7324L352.43 94.4903L358.452 86.7758Z" fill="#E28B6D"/>
<path d="M341.623 123.731C336.361 123.731 332.095 119.465 332.095 114.203V102.181H351.151V114.203C351.151 119.465 346.885 123.731 341.623 123.731Z" fill="#F9B384"/>
<path d="M351.101 104.73C344.832 114.944 338.468 114.764 332.015 105.084L351.101 104.73Z" fill="#E28B6D"/>
<path d="M360.004 79.1411C359.911 80.0743 359.8 80.9905 359.682 81.8979C357.705 97.0051 352.548 108.83 341.342 108.83C329.84 108.83 325.836 97.4802 323.733 81.6942C323.555 80.4051 323.402 79.0731 323.249 77.7243L345.872 68.682L360.004 79.1411Z" fill="#F9B384"/>
<path d="M321.412 86.4223C327.173 88.3661 338.165 81.863 338.165 81.863C337.311 79.3899 338.519 76.9568 340.921 74.5469C340.778 76.9962 341.345 80.8382 343.537 82.2519C343.537 82.2519 345.021 82.6053 347.319 82.1103C346.758 79.3105 347.168 76.8567 348.874 74.8649C348.874 74.8649 351.454 81.8982 352.726 83.4888C354.335 85.4999 360.127 88.5383 365.308 85.9982L355.66 64.1559L330.106 63.6257L318.549 74.3348L321.412 86.4223Z" fill="#6F3428"/>
<path d="M335.046 89.1282C335.888 89.1282 336.57 88.1962 336.57 87.0465C336.57 85.8968 335.888 84.9648 335.046 84.9648C334.205 84.9648 333.523 85.8968 333.523 87.0465C333.523 88.1962 334.205 89.1282 335.046 89.1282Z" fill="#6F3428"/>
<path d="M347.84 89.1282C348.681 89.1282 349.363 88.1962 349.363 87.0465C349.363 85.8968 348.681 84.9648 347.84 84.9648C346.999 84.9648 346.317 85.8968 346.317 87.0465C346.317 88.1962 346.999 89.1282 347.84 89.1282Z" fill="#6F3428"/>
<path d="M343.444 92.6606C343.444 94.681 343.605 96.2728 341.926 96.3185C340.33 96.3622 340.408 94.6807 340.408 92.6606C340.408 90.6402 341.087 89.0024 341.926 89.0024C342.764 89.0024 343.444 90.6399 343.444 92.6606Z" fill="#E28B6D"/>
<path d="M337.237 99.7345L346.846 99.469C346.846 99.469 342.833 107.146 337.237 99.7345Z" fill="white"/>
<path opacity="0.3" d="M351.071 98.3331C353.319 98.3331 355.142 96.5106 355.142 94.2625C355.142 92.0143 353.319 90.1919 351.071 90.1919C348.823 90.1919 347 92.0143 347 94.2625C347 96.5106 348.823 98.3331 351.071 98.3331Z" fill="#EE6F57"/>
<path opacity="0.3" d="M333.576 98.7573C335.824 98.7573 337.647 96.9348 337.647 94.6867C337.647 92.4385 335.824 90.6161 333.576 90.6161C331.328 90.6161 329.505 92.4385 329.505 94.6867C329.505 96.9348 331.328 98.7573 333.576 98.7573Z" fill="#EE6F57"/>
<g opacity="0.4">
<path opacity="0.4" d="M330.381 123.674C331.062 124.468 331.921 125.101 332.867 125.578C333.801 126.073 334.796 126.462 335.82 126.748C337.87 127.315 340.007 127.577 342.124 127.483C344.237 127.391 346.337 126.955 348.249 126.075C350.163 125.2 351.834 123.829 353.154 122.125L353.571 122.396C353.03 123.38 352.319 124.273 351.512 125.074C350.686 125.856 349.749 126.527 348.744 127.07C346.719 128.149 344.437 128.656 342.176 128.748C339.91 128.827 337.633 128.52 335.497 127.773C334.431 127.397 333.392 126.932 332.431 126.321C331.482 125.703 330.585 124.944 329.973 123.958L330.381 123.674Z" fill="#6F3428"/>
</g>
<g opacity="0.4">
<path opacity="0.4" d="M319.594 139.147C319.676 141.309 319.683 143.467 319.672 145.625C319.675 147.783 319.617 149.94 319.558 152.096C319.49 154.252 319.404 156.408 319.27 158.562L319.054 161.792C318.954 162.868 318.879 163.945 318.752 165.02L318.255 165.004C318.2 163.923 318.194 162.843 318.165 161.763L318.159 158.526C318.165 156.368 318.219 154.211 318.292 152.055C318.373 149.899 318.455 147.743 318.598 145.59C318.728 143.436 318.875 141.282 319.097 139.131L319.594 139.147Z" fill="#6F3428"/>
</g>
<g opacity="0.4">
<path opacity="0.4" d="M364.608 138.064C364.97 140.223 365.256 142.389 365.526 144.557C365.809 146.724 366.032 148.896 366.253 151.069C366.465 153.242 366.66 155.417 366.807 157.597L367.012 160.868C367.053 161.961 367.117 163.052 367.132 164.147L366.637 164.195C366.442 163.117 366.296 162.034 366.126 160.954L365.7 157.704C365.427 155.536 365.2 153.365 364.992 151.191C364.792 149.016 364.594 146.842 364.457 144.661C364.305 142.482 364.171 140.3 364.113 138.112L364.608 138.064Z" fill="#6F3428"/>
</g>
<path d="M258.539 25.2261V161.425V179.62L279.678 161.425H426.847V25.2261H258.539Z" stroke="#708CD5" stroke-width="3.5" stroke-miterlimit="10"/>
<path opacity="0.15" d="M27.3364 394.55C42.2185 394.55 54.2827 392.253 54.2827 389.42C54.2827 386.586 42.2185 384.289 27.3364 384.289C12.4544 384.289 0.390137 386.586 0.390137 389.42C0.390137 392.253 12.4544 394.55 27.3364 394.55Z" fill="#1F3C88"/>
<path d="M14.9752 379.433C9.14463 379.433 2.65454 370.898 2.65454 365.114C2.65454 359.234 7.34206 354.452 13.1035 354.452C18.8654 354.452 23.5529 359.234 23.5529 365.114C23.5532 370.65 21.2242 379.433 14.9752 379.433ZM13.1037 357.997C9.29723 357.997 6.20039 361.19 6.20039 365.114C6.20039 369.443 11.4487 375.887 14.9755 375.887C18.2156 375.887 20.008 369.517 20.008 365.114C20.0077 361.19 16.9103 357.997 13.1037 357.997Z" fill="#1F3C88"/>
<path d="M35.1329 388.659H19.792C17.2429 388.659 15.1198 386.705 14.909 384.164L11.7365 345.935H43.8238L40.0088 384.245C39.7589 386.751 37.6508 388.659 35.1329 388.659Z" fill="#1F3C88"/>
<path d="M15.4575 300.082C14.3825 303.681 13.902 307.385 14.5121 310.948C14.8153 312.723 15.3208 314.456 16.0225 316.118C16.7447 317.772 17.6404 319.358 18.661 320.871C19.7164 322.363 20.8362 323.826 22.1033 325.179C22.4031 325.504 22.7304 325.908 23.0592 326.302C23.3803 326.701 23.7215 327.075 24.0224 327.494L24.8734 328.802C25.1678 329.228 25.3436 329.753 25.5771 330.223C25.8239 330.689 25.943 331.232 26.0967 331.748C26.2757 332.256 26.3046 332.819 26.3696 333.362C26.411 333.633 26.4042 333.909 26.379 334.187L26.3231 335.012C26.2839 335.284 26.2088 335.552 26.1506 335.82C26.0899 336.088 26.0321 336.356 25.9183 336.605L25.6083 337.358C25.4818 337.595 25.3431 337.825 25.2103 338.056C25.0852 338.293 24.9236 338.503 24.765 338.713C24.6065 338.923 24.4575 339.14 24.2706 339.323C23.5714 340.109 22.792 340.742 21.8611 341.266L21.2699 340.328C22.5829 339.172 23.6585 337.618 24.023 336.017C24.0939 335.823 24.1109 335.617 24.1336 335.414C24.1538 335.211 24.1943 335.012 24.2023 334.81L24.1753 334.201C24.1764 334 24.1634 333.799 24.105 333.599C24.0116 333.2 23.9861 332.798 23.8046 332.412C23.6509 332.024 23.5513 331.627 23.3122 331.261C23.0895 330.893 22.9355 330.505 22.67 330.154L21.9087 329.09C21.6373 328.745 21.3145 328.426 21.022 328.092L20.0803 327.066C19.407 326.344 18.7347 325.62 18.1186 324.839C17.4697 324.09 16.8981 323.269 16.3246 322.455C15.2422 320.778 14.2293 319.032 13.5103 317.138C12.798 315.248 12.292 313.266 12.1096 311.247C11.6949 307.198 12.6571 303.135 14.4315 299.661L15.4575 300.082Z" fill="#D3DFFF"/>
<path d="M29.3926 298.989C31.377 300.615 33.0008 302.88 33.7491 305.493C34.1414 306.788 34.309 308.146 34.3283 309.493C34.3467 310.844 34.1289 312.168 33.862 313.464C33.5596 314.752 33.1259 315.995 32.6239 317.192L32.2877 318.014C32.1885 318.271 32.0665 318.528 31.9823 318.786L31.7673 319.56C31.6881 319.82 31.6793 320.067 31.6251 320.323C31.5602 320.583 31.5857 320.821 31.5744 321.069C31.546 321.325 31.6141 321.548 31.6362 321.789C31.6444 322.037 31.7582 322.241 31.8061 322.48C31.9119 322.689 31.9888 322.923 32.1326 323.121C32.625 323.956 33.5707 324.667 34.5586 325.116L34.3413 326.203C32.9339 326.057 31.622 325.456 30.572 324.346C30.3093 324.077 30.1111 323.744 29.8975 323.427C29.7426 323.084 29.5265 322.744 29.4363 322.376C29.3361 322.011 29.2142 321.637 29.1969 321.268C29.1623 320.899 29.1027 320.517 29.1393 320.162C29.1674 319.806 29.1472 319.424 29.2269 319.084L29.4385 318.05C29.5239 317.713 29.643 317.397 29.7457 317.069C29.8549 316.743 29.9596 316.407 30.0603 316.152C30.5036 315.059 30.8224 313.936 31.1137 312.819C31.3812 311.698 31.5471 310.566 31.6169 309.437C31.6697 308.307 31.5903 307.184 31.3982 306.072C31.0057 303.843 29.9602 301.742 28.5845 299.749L29.3926 298.989Z" fill="#D3DFFF"/>
<path opacity="0.15" d="M436.672 397.053C466.436 397.053 490.565 393.481 490.565 389.075C490.565 384.67 466.436 381.098 436.672 381.098C406.908 381.098 382.78 384.67 382.78 389.075C382.78 393.481 406.908 397.053 436.672 397.053Z" fill="#1F3C88"/>
<path d="M440.103 259.131H432.539V333.115H440.103V259.131Z" fill="#27481F"/>
<path d="M438.211 254.16C438.112 259.513 437.615 264.023 437.197 266.938C436.878 269.179 436.609 270.469 436.609 270.469C415.959 263.768 406.485 250.969 402.543 238.056C402.174 236.879 401.862 235.694 401.592 234.517C397.423 216.548 403.01 199.43 403.01 199.43C412.477 201.409 419.476 205.536 424.617 210.847C425.504 211.754 426.326 212.691 427.099 213.662C436.615 225.589 438.438 242.034 438.211 254.16Z" fill="#49883A"/>
<path d="M464.98 218.392C464.569 232.759 458.981 249.494 441.65 265.562C440.324 266.796 438.92 268.03 437.445 269.257C437.289 269.391 437.133 269.519 436.977 269.647C436.977 269.647 434.105 265.434 431.148 258.585C431.106 258.485 431.063 258.393 431.028 258.294C429.993 255.876 428.95 253.131 428.028 250.132C427.27 247.686 426.589 245.076 426.043 242.325C423.958 231.752 423.951 219.215 429.716 206.805C434.042 197.459 441.643 188.191 454.081 179.873C454.081 179.873 465.618 196.353 464.98 218.392Z" fill="#49883A"/>
<path opacity="0.5" d="M441.65 265.562C440.324 266.796 438.92 268.03 437.445 269.257C437.289 269.391 437.133 269.519 436.977 269.647C436.977 269.647 434.105 265.434 431.148 258.584C431.108 258.491 431.068 258.388 431.027 258.294C431.028 258.294 431.028 258.294 431.028 258.294C430.778 257.709 430.527 257.105 430.278 256.483C430.183 256.246 430.09 255.996 429.995 255.754C429.833 255.337 429.67 254.924 429.509 254.493C429.384 254.155 429.262 253.8 429.138 253.453C429.008 253.089 428.876 252.733 428.749 252.359C428.503 251.633 428.261 250.892 428.028 250.132C427.269 247.686 426.589 245.076 426.043 242.325C424.341 233.702 424.022 223.767 427.099 213.662C426.326 212.691 425.504 211.755 424.617 210.847C422.63 216.092 419.4 228.117 419.017 238.961C414.243 237.09 408.503 235.556 401.592 234.517C401.862 235.694 402.174 236.878 402.543 238.056C399.6 237.354 396.416 236.737 392.977 236.226C395.692 245.487 406.585 274.986 435.006 275.426C435.729 275.44 436.459 275.433 437.204 275.405C438.374 275.369 439.573 275.277 440.806 275.135C440.806 275.135 442.083 271.114 441.65 265.562Z" fill="#27481F"/>
<path d="M437.381 273.859C437.381 273.88 437.381 273.909 437.374 273.93C437.36 274.107 437.346 274.278 437.324 274.44C437.31 274.518 437.303 274.597 437.296 274.674C437.282 274.809 437.268 274.937 437.246 275.064C437.197 275.454 437.14 275.816 437.083 276.163C437.048 276.39 437.005 276.61 436.963 276.823C436.587 278.73 436.161 279.865 436.161 279.865C434.14 279.993 432.212 279.986 430.354 279.858C396.706 277.603 389.8 235.78 389.8 235.78C390.884 235.915 391.941 236.063 392.976 236.227C396.415 236.737 399.599 237.354 402.542 238.056C414.704 240.949 422.752 245.31 428.028 250.132C429.616 251.579 430.949 253.075 432.063 254.578C435.183 258.776 436.636 263.088 437.197 266.938C437.317 267.732 437.395 268.505 437.445 269.257C437.552 270.93 437.509 272.483 437.381 273.859Z" fill="#49883A"/>
<path opacity="0.38" d="M464.98 218.392C464.774 225.575 463.271 233.347 459.655 241.339C456.045 249.331 450.315 257.528 441.65 265.562C441.614 265.591 441.579 265.626 441.544 265.654C441.033 266.129 440.508 266.604 439.97 267.079C439.813 267.221 439.657 267.363 439.494 267.505C438.828 268.086 438.147 268.675 437.445 269.256C437.395 268.505 437.317 267.732 437.197 266.938C436.636 263.087 435.183 258.776 432.062 254.578C430.949 253.074 429.616 251.578 428.028 250.132C427.269 247.685 426.588 245.076 426.042 242.324C427.963 243.445 429.666 244.629 431.154 245.863C432.211 246.728 433.147 247.615 434.005 248.515C438.438 236.921 447.365 225.051 464.98 218.392Z" fill="#27481F"/>
<path opacity="0.2" d="M437.381 273.859C437.381 273.881 437.381 273.909 437.374 273.93C437.36 274.107 437.346 274.278 437.325 274.441C437.311 274.519 437.304 274.597 437.296 274.675C437.282 274.81 437.268 274.937 437.247 275.065C437.197 275.455 437.14 275.816 437.083 276.164C437.041 276.391 437.005 276.611 436.963 276.823C436.587 278.731 436.162 279.865 436.162 279.865C434.141 279.993 432.212 279.986 430.354 279.859C430.042 277.54 429.141 268.91 431.148 258.585C431.403 257.273 431.708 255.933 432.063 254.579C435.183 258.777 436.637 263.088 437.197 266.939C437.318 267.733 437.396 268.505 437.445 269.257C437.552 270.931 437.509 272.484 437.381 273.859Z" fill="#27481F"/>
<path d="M469.766 323.66L461.449 378.106C460.52 384.175 455.301 388.657 449.16 388.657H424.185C418.746 388.657 414.023 385.14 412.378 380.113C412.165 379.467 412.002 378.794 411.896 378.106L403.578 323.66H469.766Z" fill="#FBC343"/>
<path d="M435.289 279.932C435.289 279.932 426.175 225.881 484.137 218.089C484.137 218.089 487.773 277.317 435.289 279.932Z" fill="#49883A"/>
<path opacity="0.4" d="M469.766 323.66L461.449 378.106C460.52 384.175 455.301 388.657 449.16 388.657H424.185C418.745 388.657 414.023 385.14 412.378 380.113C444.805 374.915 453.499 341.53 455.258 323.66H469.766Z" fill="#C89B35"/>
<path opacity="0.15" d="M349.257 389.733C349.257 383.083 290.012 377.692 216.93 377.692C143.848 377.692 84.603 383.083 84.603 389.733C84.603 395.127 123.58 399.692 177.303 401.225C183.153 410.823 173.387 422.303 165.903 426.443C152.76 427.099 143.328 428.561 144.813 431.681C151.837 446.431 211.529 430.736 211.529 430.736C211.529 430.736 234.87 432.186 234.87 429.967C234.87 428.946 230.759 428.014 223.999 427.305L224.499 427.275L199.299 401.668C205.068 401.738 210.952 401.775 216.93 401.775C290.012 401.775 349.257 396.384 349.257 389.733Z" fill="#1F3C88"/>
<path d="M360.946 301.28C359.202 330.063 344.693 358.825 320.91 374.652C292.56 393.522 252.92 389.345 220.634 391.749C192.724 393.827 164.6 395.614 136.682 392.642C113.806 390.203 90.7318 381.141 79.8044 358.931C68.8557 336.672 67.6715 307.095 78.6202 284.566C82.109 277.376 86.7821 270.987 92.2777 265.413C93.1712 264.498 94.1001 263.605 95.0432 262.733C95.6815 262.144 96.3267 261.563 96.9862 260.996C97.9932 260.123 99.0285 259.272 100.078 258.443C100.425 258.173 100.773 257.904 101.127 257.634C101.475 257.365 101.829 257.102 102.184 256.84C102.539 256.578 102.893 256.315 103.255 256.06C103.524 255.868 103.794 255.677 104.063 255.486C104.51 255.167 104.964 254.854 105.425 254.549C109.502 251.798 113.799 249.38 118.231 247.302C122.543 245.267 126.982 243.551 131.449 242.161C146.135 237.602 161.473 235.985 176.627 233.992C208.785 229.773 241.525 228.334 273.938 228.355C300.388 228.362 330.171 232.319 347.856 255.025C357.84 267.846 361.946 284.886 360.946 301.28Z" fill="#EE6F57"/>
<path d="M306.494 252.666C306.494 252.666 313.316 246.257 316.932 242.548C320.547 238.838 312.659 238.718 308.771 243.341C304.883 247.964 306.494 252.666 306.494 252.666Z" fill="#F9B384"/>
<path d="M118.231 247.302C113.799 249.38 109.502 251.799 105.424 254.55C104.963 254.855 104.51 255.167 104.063 255.486C103.793 255.677 103.524 255.869 103.254 256.06C102.893 256.315 102.538 256.578 102.184 256.84C101.829 257.102 101.475 257.365 101.127 257.634C100.773 257.904 100.425 258.173 100.078 258.443C99.0423 259.265 98.0283 260.109 97.0284 260.974L96.9859 260.996C96.3264 261.563 95.6811 262.145 95.0429 262.733C94.0998 263.605 93.1708 264.499 92.2773 265.414C92.3553 266.165 92.8446 266.888 93.6488 267.053C98.9711 268.13 101.637 273.208 105.926 276.095C109.11 278.237 112.873 278.825 116.476 277.597C112.597 285.811 110.458 293.959 112.133 303.153C112.643 305.932 113.525 308.639 114.73 311.195C109.745 307.493 104.944 299.563 102.969 291.521C102.689 290.38 101.536 289.664 100.396 289.963C99.2553 290.243 98.5573 291.394 98.8375 292.536C101.282 302.492 107.505 312.059 113.971 315.799C115.511 316.69 117.074 317.257 118.623 317.517C119.904 319.159 121.333 320.683 122.904 322.05L132.463 324.724L140.263 274.377L118.231 247.302Z" fill="#B35341"/>
<path d="M145.936 281.112C126.172 273.415 112.451 265.229 104.486 259.779C99.3226 256.245 96.7111 250.016 97.7691 243.85L107.96 184.444C109.009 178.33 113.064 173.132 118.765 170.687C135.115 163.676 151.034 159.67 165.082 157.727C165.082 157.727 172.951 157.092 182.987 158.082C189.592 158.733 204.71 163.188 214.321 166.173C219.752 167.859 224.11 171.925 226.166 177.227C230.196 187.614 236.742 205.154 238.83 214.633C246.039 247.371 244.857 244.948 244.857 244.948L252.303 295.295L173.237 299.727L153.027 290.508L145.936 281.112Z" fill="#708CD5"/>
<path d="M194.865 101.176C194.865 101.176 187.862 86.8161 169.248 93.3754C155.775 90.4502 145.493 106.405 155.42 128.122L174.123 132.465L194.865 101.176Z" fill="#102048"/>
<path d="M184.937 141.772V167.173C184.937 173.115 180.115 177.937 174.173 177.937C166.117 177.937 159.586 171.406 159.586 163.35V141.772H184.937Z" fill="#F9B384"/>
<path d="M184.937 152.309V166.165C173.641 166.222 166.146 151.615 166.146 151.615L184.937 152.309Z" fill="#E28B6D"/>
<path d="M196.113 138.574C195.432 142.091 194.46 145.693 193.064 148.863C190.624 154.43 186.901 158.67 181.214 158.791C167.904 159.074 157.636 140.885 157.636 140.885L159.764 116.067L169.868 104.721L197.701 121.917C197.701 121.917 197.779 129.986 196.113 138.574Z" fill="#F9B384"/>
<path d="M159.32 133.617C159.32 133.617 162.068 122.448 171.641 115.18C171.641 115.18 185.558 133.351 200.272 124.576C214.986 115.8 208.604 98.5157 194.865 101.175L179.087 99.4021L159.32 105.696L155.952 121.208L159.32 133.617Z" fill="#102048"/>
<path opacity="0.4" d="M173.29 262.337C159.882 233.366 142.981 247.194 138.845 236.557C133.049 221.653 134.147 204.793 134.117 199.683L126.042 245.155C126.042 245.155 144.072 246.869 150.738 257.725L173.29 262.337Z" fill="#1F3C88"/>
<path d="M134.529 198.908C134.026 202.798 133.433 206.672 132.821 210.543C132.225 214.417 131.525 218.272 130.882 222.137C130.209 225.997 129.502 229.851 128.746 233.697L127.59 239.461C127.173 241.376 126.784 243.297 126.335 245.207L125.749 245.104C125.983 243.156 126.277 241.218 126.542 239.276L127.435 233.465C128.044 229.594 128.703 225.731 129.396 221.874C130.118 218.023 130.784 214.162 131.554 210.319C132.307 206.473 133.08 202.631 133.942 198.804L134.529 198.908Z" fill="#1F3C88"/>
<path d="M212.865 191.716C213.939 196.768 214.929 201.835 215.9 206.905C216.887 211.973 217.777 217.058 218.721 222.133C219.62 227.217 220.501 232.303 221.357 237.394L222.594 245.039C222.976 247.592 223.385 250.141 223.739 252.7L223.193 252.797C222.64 250.274 222.143 247.741 221.619 245.213L220.137 237.612C219.181 232.538 218.25 227.461 217.337 222.38C216.468 217.292 215.546 212.212 214.721 207.116C213.88 202.023 213.058 196.925 212.32 191.814L212.865 191.716Z" fill="#1F3C88"/>
<path opacity="0.4" d="M216.611 215.165C217.556 224.384 216.138 272.131 193.919 272.84L194.156 283.24L229.139 281.113L216.611 215.165Z" fill="#1F3C88"/>
<path d="M170.932 271.54C186.71 264.804 189.726 265.055 191.851 265.158C199.119 265.513 209.579 280.049 209.579 280.049L209.401 282.709H169.514L170.932 271.54Z" fill="#E28B6D"/>
<path d="M231.62 280.108H182.514V287.554H231.62V280.108Z" fill="white"/>
<path d="M298.395 287.56H213.065L232.211 211.307H317.541L298.395 287.56Z" fill="#FBC343"/>
<path d="M306.129 256.373C297.686 255.112 270.385 249.439 214.129 283.713L212.829 288.44L298.395 287.56L306.129 256.373Z" fill="#C89B35"/>
<path d="M307.747 273.313C307.215 276.903 307.038 282.177 295.913 281.512L292.634 279.828L295.736 276.415L302.428 273.003L307.747 273.313Z" fill="#F9B384"/>
<path d="M308.796 263.622C308.796 263.622 314.884 271.575 308.766 274.022C302.118 276.681 295.736 276.416 295.736 276.416C298.573 268.438 307.791 268.97 307.791 268.97L308.796 263.622Z" fill="#F9B384"/>
<path d="M308.973 258.481C308.973 258.481 317.364 266.281 309.564 268.468C298.548 271.556 295.145 271.777 295.145 271.777C294.555 265.927 305.487 262.145 305.487 262.145L308.973 258.481Z" fill="#F9B384"/>
<path d="M307.259 251.685C307.259 251.685 318.723 258.658 307.968 262.558C297.214 266.458 294.672 266.399 294.672 266.399C294.082 260.549 305.605 258.54 305.605 258.54L307.259 251.685Z" fill="#F9B384"/>
<path d="M294.672 266.399C294.672 266.399 307.17 264.626 310.893 261.612" stroke="#E28B6D" stroke-width="2.5" stroke-miterlimit="10"/>
<path d="M295.145 271.776C295.145 271.776 308.146 269.944 312.223 267.108" stroke="#E28B6D" stroke-width="2.5" stroke-miterlimit="10"/>
<path d="M295.736 276.416C295.736 276.416 303.448 276.682 307.791 274.554" stroke="#E28B6D" stroke-width="2.5" stroke-miterlimit="10"/>
<path d="M174.655 388.189C175.955 387.48 196.519 391.971 219.329 375.071L189.901 366.68L174.655 388.189Z" fill="#102048"/>
<path d="M305.324 290.58C306.302 289.183 307.146 287.126 305.912 285.949C304.629 284.715 302.53 285.801 301.182 286.963C298.807 289.005 296.651 291.246 294.658 293.629L244.978 302.862L176.903 319.405L188.607 334.345C222.645 336.827 242.031 337.465 263.332 333.706C274.189 331.79 283.894 329.815 291.134 323.915C292.858 322.504 294.488 320.135 293.368 318.214C292.609 316.916 291.035 316.576 289.454 316.59C293.092 315.732 296.623 314.477 299.977 312.838C301.473 312.115 303.14 310.98 303.104 309.321C303.083 308.13 302.118 307.123 301.012 306.698C299.906 306.272 298.686 306.308 297.502 306.393C292.964 306.733 288.475 307.726 284.213 309.328C291.971 303.911 299.864 298.302 305.324 290.58ZM284.107 309.4C284.107 309.385 284.114 309.379 284.128 309.364C284.149 309.357 284.178 309.35 284.199 309.336C284.171 309.357 284.135 309.378 284.107 309.4Z" fill="#B35341"/>
<path d="M191.319 297.068C191.319 297.068 257.621 265.513 279.249 266.931C300.877 268.349 300.168 295.296 292.013 306.996C283.858 318.696 264.712 334.297 194.156 329.688L191.319 297.068Z" fill="#102048"/>
<path d="M224.499 427.276C220.91 428.29 215.819 428.538 208.813 427.425C208.813 427.425 199.736 429.779 190.802 431.63C184.753 432.885 178.775 433.906 175.719 433.807C175.456 433.8 175.194 433.785 174.924 433.764C169.06 433.346 161.671 430.289 157.75 425.922C157.743 425.907 157.736 425.893 157.721 425.886C156.644 424.681 155.828 423.369 155.388 421.993C153.261 415.37 157.757 407.335 182.101 408.988C182.101 408.988 190.135 407.101 192.028 401.187C193.922 395.281 179.973 366.916 179.973 366.916L199.829 353.443L219.329 375.071C219.329 375.071 222.286 394.571 222.286 400.953C222.286 400.953 230.554 412.774 231.739 417.972C232.497 421.291 230.838 425.482 224.499 427.276Z" fill="#D3DFFF"/>
<path d="M112.862 247.682C115.136 246.807 117.453 246.1 119.796 245.449C120.969 245.129 122.149 244.829 123.351 244.594C123.951 244.472 124.558 244.368 125.173 244.284C125.482 244.242 125.789 244.21 126.111 244.185C126.453 244.168 126.787 244.171 127.105 244.204C129.652 244.471 131.961 245.271 134.255 246.119C136.537 246.988 138.771 247.962 140.964 249.015C143.164 250.056 145.305 251.214 147.411 252.43C149.516 253.647 151.587 254.923 153.6 256.289C157.599 259.05 161.448 262.083 164.761 265.656L164.34 266.078C162.557 264.465 160.702 262.94 158.772 261.513C156.857 260.067 154.876 258.709 152.849 257.423C148.829 254.798 144.608 252.489 140.312 250.357C138.162 249.292 135.973 248.308 133.75 247.431C131.528 246.601 129.253 245.711 126.989 245.404C126.707 245.364 126.438 245.355 126.174 245.357C125.894 245.37 125.599 245.393 125.309 245.423C124.725 245.488 124.138 245.571 123.551 245.673C122.377 245.878 121.201 246.117 120.029 246.38C117.688 246.913 115.354 247.533 113.063 248.242L112.862 247.682Z" fill="#1F3C88"/>
<path d="M124.662 340.501C132.64 339.969 140.48 340.541 146.172 338.551C152.259 336.424 168.155 337.842 168.155 337.842L159.409 325.255L123.953 334.119L124.662 340.501Z" fill="#B35341"/>
<path d="M125.017 317.278C116.862 304.159 116.862 278.276 127.145 266.576C138.896 253.204 164.019 248.139 177.137 263.74C190.256 279.34 214.366 336.424 219.329 375.07C219.329 375.07 192.738 366.206 174.655 388.189C174.655 388.189 150.9 333.942 145.936 314.087L132.463 324.723L125.017 317.278Z" fill="#1F3C88"/>
<path d="M145.936 314.086C145.936 314.086 142.39 312.786 137.426 316.095C137.426 316.095 98.6614 315.268 90.0341 324.014C81.4067 332.76 88.025 344.46 100.671 345.76C111.284 346.851 131.888 338.618 138.236 335.944C139.525 335.401 140.896 335.074 142.292 334.983L152.791 334.296L145.936 314.086Z" fill="#D3DFFF"/>
<path d="M161.417 134.34C161.417 134.34 158.817 125.723 153.097 127.877C147.377 130.031 150.423 141.248 161.714 144.368L161.417 134.34Z" fill="#F9B384"/>
<path d="M155.325 181.855C158.148 183.846 161.157 185.559 164.348 186.773C167.536 187.968 170.901 188.726 174.275 188.645C177.642 188.604 180.976 187.774 183.984 186.235L185.117 185.66C185.487 185.456 185.828 185.199 186.186 184.97C186.892 184.498 187.623 184.055 188.254 183.476L189.25 182.667L189.75 182.263C189.912 182.123 190.056 181.963 190.21 181.814C190.815 181.206 191.429 180.603 192.053 180.003L192.477 180.361C191.919 181.035 191.35 181.706 190.772 182.372C190.626 182.536 190.49 182.711 190.336 182.868L189.856 183.323L188.892 184.234C188.265 184.864 187.529 185.363 186.814 185.891C186.452 186.147 186.107 186.432 185.728 186.665L184.566 187.329C181.458 189.082 177.873 190.029 174.29 190.05C170.707 190.058 167.152 189.281 163.9 187.883C160.638 186.497 157.636 184.579 154.983 182.291L155.325 181.855Z" fill="#1F3C88"/>
<path d="M140.06 291.449L143.133 302.2C144.178 305.776 145.155 309.369 146.247 312.928C147.316 316.494 148.38 320.06 149.502 323.607C150.063 325.379 150.617 327.157 151.231 328.911C151.531 329.79 151.803 330.682 152.12 331.555C152.438 332.429 152.747 333.307 153.047 334.189L152.535 334.403C151.744 332.708 151.002 330.988 150.301 329.253C149.605 327.516 148.97 325.757 148.327 324C147.068 320.478 145.954 316.909 144.899 313.325C143.876 309.732 142.864 306.136 141.976 302.508C141.077 298.883 140.229 295.248 139.521 291.577L140.06 291.449Z" fill="#102048"/>
<path opacity="0.1" d="M224.499 427.276C220.911 428.29 215.819 428.538 208.813 427.425C208.813 427.425 193.801 431.268 184.317 432.775C194.067 430.825 208.249 418.77 206.654 411.147C220.659 415.756 224.47 422.759 224.499 427.276Z" fill="#1F3C88"/>
<path opacity="0.4" d="M186.795 428.608C184.987 430.835 182.292 432.345 179.463 433.104C177.981 433.501 176.456 433.714 174.924 433.763C169.06 433.345 161.671 430.289 157.75 425.921C157.743 425.906 157.735 425.892 157.721 425.885C157.303 425.318 156.913 424.73 156.573 424.12C158.657 426.063 160.926 427.651 163.373 428.864C164.6 429.445 165.841 430.005 167.138 430.395C167.769 430.637 168.429 430.778 169.081 430.962C169.727 431.161 170.4 431.239 171.067 431.36C176.364 432.253 181.987 431.7 186.795 428.608Z" fill="#1F3C88"/>
<path d="M158.847 135.563C158.716 134.789 158.351 134.067 157.923 133.407C157.485 132.756 156.963 132.147 156.36 131.72C155.756 131.298 155.1 131.087 154.547 131.386C153.967 131.675 153.507 132.38 153.105 133.095L152.713 132.958C152.882 132.117 153.193 131.192 154.073 130.581C154.508 130.278 155.102 130.17 155.619 130.263C156.138 130.357 156.592 130.58 156.975 130.859C157.741 131.422 158.302 132.154 158.71 132.953C159.105 133.75 159.39 134.65 159.263 135.572L158.847 135.563Z" fill="#E28B6D"/>
<path d="M190.539 137.245C191.427 137.425 192.348 136.58 192.597 135.357C192.847 134.134 192.329 132.995 191.442 132.815C190.555 132.634 189.633 133.479 189.384 134.702C189.135 135.925 189.652 137.064 190.539 137.245Z" fill="#102048"/>
<path d="M176.793 136.792C177.687 136.938 178.574 136.057 178.775 134.825C178.976 133.593 178.415 132.476 177.521 132.33C176.627 132.184 175.739 133.065 175.538 134.297C175.337 135.529 175.899 136.646 176.793 136.792Z" fill="#102048"/>
<path d="M184.635 136.476C184.719 137.482 184.759 138.485 184.771 139.465C184.811 139.84 184.985 140.161 185.298 140.503C185.6 140.841 185.991 141.195 186.329 141.688C186.498 141.931 186.631 142.241 186.696 142.547C186.767 142.851 186.775 143.153 186.756 143.45C186.705 144.04 186.496 144.621 186.104 145.099C185.911 145.339 185.655 145.537 185.375 145.681C185.084 145.806 184.771 145.887 184.47 145.872C183.864 145.845 183.343 145.61 182.91 145.307L183.106 144.94C183.565 145.09 184.024 145.205 184.429 145.129C184.831 145.073 185.151 144.858 185.364 144.528C185.798 143.882 185.861 142.869 185.442 142.266C185.224 141.916 184.861 141.587 184.518 141.155C184.171 140.746 183.84 140.127 183.863 139.484C183.94 138.454 184.063 137.445 184.22 136.441L184.635 136.476Z" fill="#E28B6D"/>
<path d="M173.204 130.538C173.769 129.975 174.44 129.507 175.195 129.171C175.946 128.833 176.799 128.646 177.663 128.7C178.527 128.75 179.375 129.071 180.05 129.574C180.731 130.073 181.256 130.721 181.645 131.421L181.316 131.676C180.73 131.177 180.164 130.708 179.546 130.36C178.93 130.013 178.27 129.802 177.588 129.755C176.214 129.65 174.815 130.197 173.448 130.875L173.204 130.538Z" fill="#102048"/>
<path d="M187.632 131.752C187.866 130.998 188.494 130.402 189.185 130.048C189.883 129.684 190.67 129.529 191.447 129.542C192.225 129.559 193.007 129.76 193.685 130.157C194.363 130.548 194.924 131.15 195.217 131.849L194.868 132.076C193.904 131.107 192.693 130.643 191.42 130.6C190.165 130.572 188.835 130.919 188.005 131.936L187.632 131.752Z" fill="#102048"/>
<path d="M177.95 148.403L187.356 149.074C187.356 149.074 182.109 156.033 177.95 148.403Z" fill="white"/>
<path opacity="0.4" d="M196.113 138.574C195.432 142.091 194.461 145.693 193.064 148.863C191.227 147.998 189.958 146.126 189.958 143.956C189.958 140.956 192.397 138.524 195.397 138.524C195.638 138.524 195.879 138.538 196.113 138.574Z" fill="#EE6F57"/>
<path opacity="0.4" d="M172.173 148.154C175.176 148.154 177.61 145.72 177.61 142.717C177.61 139.715 175.176 137.281 172.173 137.281C169.17 137.281 166.736 139.715 166.736 142.717C166.736 145.72 169.17 148.154 172.173 148.154Z" fill="#EE6F57"/>
<path d="M95.7113 131.97C101.673 125.368 105.306 116.622 105.306 107.026C105.306 86.4637 88.6371 69.795 68.0751 69.795C47.5131 69.795 30.8447 86.4637 30.8447 107.026C30.8447 127.587 47.5134 144.256 68.0751 144.256C72.8367 144.256 77.3847 143.352 81.5701 141.723L101.556 149.881L95.7113 131.97Z" fill="#E6E6E6" stroke="#8CBFBE" stroke-width="3.5" stroke-miterlimit="10"/>
<path d="M51.4505 111.899C53.6462 111.899 55.4261 110.119 55.4261 107.923C55.4261 105.728 53.6462 103.948 51.4505 103.948C49.2549 103.948 47.475 105.728 47.475 107.923C47.475 110.119 49.2549 111.899 51.4505 111.899Z" fill="#8CBFBE"/>
<path d="M68.0751 111.899C70.2707 111.899 72.0506 110.119 72.0506 107.923C72.0506 105.728 70.2707 103.948 68.0751 103.948C65.8794 103.948 64.0995 105.728 64.0995 107.923C64.0995 110.119 65.8794 111.899 68.0751 111.899Z" fill="#8CBFBE"/>
<path d="M84.6999 111.899C86.8956 111.899 88.6755 110.119 88.6755 107.923C88.6755 105.728 86.8956 103.948 84.6999 103.948C82.5043 103.948 80.7244 105.728 80.7244 107.923C80.7244 110.119 82.5043 111.899 84.6999 111.899Z" fill="#8CBFBE"/>
<path d="M190.906 2H117.678C113.525 2 110.128 5.39778 110.128 9.55035V40.9737C110.128 45.1265 113.525 48.5241 117.678 48.5241H124.44L135.431 65.0441L138.699 48.5241H190.906C195.058 48.5241 198.456 45.1263 198.456 40.9737V9.55035C198.456 5.3975 195.058 2 190.906 2Z" fill="#E6E6E6" stroke="#8CBFBE" stroke-width="3.5" stroke-miterlimit="10"/>
<path d="M185.655 13.4384H122.928V17.0421H185.655V13.4384Z" fill="#8CBFBE"/>
<path d="M185.655 22.9386H122.928V26.5423H185.655V22.9386Z" fill="#C6EAE9"/>
<path d="M185.655 32.4391H122.928V36.0428H185.655V32.4391Z" fill="#C6EAE9"/>
</svg>
