<svg width="42" height="42" viewBox="0 0 42 42" fill="none" xmlns="http://www.w3.org/2000/svg">
<path d="M8.25854 41.9685C7.5289 41.9697 6.80233 41.8751 6.09798 41.6872C3.98379 41.0922 2.19012 39.7031 1.10179 37.818C0.0134591 35.9329 -0.282833 33.7019 0.276481 31.6037L3.77238 18.5144C4.04824 17.4605 4.53391 16.4712 5.20108 15.6044C5.86825 14.7375 6.70358 14.0103 7.65839 13.4653C8.59107 12.9322 9.62167 12.587 10.6905 12.4497C11.7593 12.3125 12.8451 12.3859 13.885 12.6657C14.9877 12.9653 16.0156 13.487 16.9039 14.198C17.7922 14.909 18.5217 15.7939 19.0463 16.7968H22.9473C23.4665 15.7867 24.1938 14.8948 25.0826 14.1783C25.9714 13.4618 27.0021 12.9365 28.1087 12.6361C29.1485 12.3563 30.2343 12.2829 31.3032 12.4201C32.372 12.5574 33.4026 12.9026 34.3353 13.4357C35.2896 13.9814 36.1245 14.7087 36.7916 15.5755C37.4587 16.4423 37.9446 17.4312 38.2213 18.4848L41.7172 31.6037C42.2849 33.708 41.9909 35.9483 40.8988 37.8405C39.8068 39.7328 38.0043 41.1251 35.8807 41.7168C34.8408 41.9966 33.755 42.07 32.6862 41.9328C31.6174 41.7955 30.5867 41.4503 29.6541 40.9172C28.6993 40.3721 27.8639 39.645 27.1968 38.7781C26.5296 37.9113 26.0439 36.922 25.7681 35.8681L25.498 34.5651H16.4957L16.1506 35.8384C15.8747 36.8924 15.3891 37.8817 14.7219 38.7485C14.0547 39.6154 13.2194 40.3425 12.2646 40.8876C11.0455 41.5815 9.6658 41.9537 8.25854 41.9685ZM11.7394 15.3161C10.834 15.3192 9.94486 15.5539 9.15877 15.9973C8.54766 16.3492 8.01304 16.8169 7.58562 17.3734C7.1582 17.9299 6.8464 18.5642 6.66813 19.24L3.17223 32.3292C2.80641 33.6777 2.99126 35.1141 3.68704 36.3295C4.38282 37.545 5.534 38.4426 6.89319 38.8294C7.54962 39.0061 8.23503 39.0526 8.90978 38.9662C9.58453 38.8798 10.2352 38.6622 10.8242 38.326C11.4358 37.9747 11.9709 37.5072 12.3984 36.9506C12.8259 36.394 13.1373 35.7594 13.3148 35.0833L14.2451 31.6037H27.7486L28.6638 35.0833C29.0269 36.4467 29.9224 37.6126 31.1545 38.326C31.7463 38.6619 32.3995 38.8792 33.0766 38.9656C33.7538 39.052 34.4415 39.0057 35.1005 38.8294C36.4613 38.4462 37.6139 37.5485 38.3078 36.3314C39.0018 35.1142 39.1809 33.676 38.8064 32.3292L35.3105 19.24C35.1379 18.5638 34.8299 17.9286 34.4048 17.3717C33.9796 16.8148 33.4458 16.3475 32.8349 15.9973C32.243 15.6614 31.5898 15.444 30.9127 15.3577C30.2356 15.2713 29.5478 15.3175 28.8889 15.4938C28.0739 15.7231 27.3262 16.1409 26.7077 16.7126C26.0893 17.2843 25.618 17.9934 25.3329 18.7809L24.9729 19.7582H17.0208L16.6607 18.7809C16.3732 17.9923 15.8992 17.2828 15.2782 16.7111C14.6571 16.1394 13.9069 15.7221 13.0898 15.4938C12.6495 15.3767 12.1955 15.3169 11.7394 15.3161Z" fill="black"/>
<path d="M11.7352 27.1765C11.1244 27.1765 10.5273 26.9953 10.0195 26.656C9.51162 26.3167 9.11579 25.8344 8.88205 25.2701C8.64831 24.7058 8.58715 24.0848 8.70631 23.4858C8.82547 22.8867 9.1196 22.3364 9.5515 21.9045C9.9834 21.4726 10.5337 21.1785 11.1327 21.0593C11.7318 20.9402 12.3527 21.0013 12.917 21.2351C13.4813 21.4688 13.9636 21.8646 14.303 22.3725C14.6423 22.8804 14.8234 23.4774 14.8234 24.0882C14.8234 24.9073 14.4981 25.6928 13.9189 26.2719C13.3398 26.8511 12.5543 27.1765 11.7352 27.1765Z" fill="black"/>
<path d="M30.2648 22.2352C31.2882 22.2352 32.1177 21.6822 32.1177 20.9999C32.1177 20.3177 31.2882 19.7646 30.2648 19.7646C29.2415 19.7646 28.4119 20.3177 28.4119 20.9999C28.4119 21.6822 29.2415 22.2352 30.2648 22.2352Z" fill="black"/>
<path d="M30.2648 28.4118C31.2882 28.4118 32.1177 27.8587 32.1177 27.1765C32.1177 26.4942 31.2882 25.9412 30.2648 25.9412C29.2415 25.9412 28.4119 26.4942 28.4119 27.1765C28.4119 27.8587 29.2415 28.4118 30.2648 28.4118Z" fill="black"/>
<path d="M27.1765 25.9412C27.8587 25.9412 28.4118 25.1116 28.4118 24.0883C28.4118 23.0649 27.8587 22.2354 27.1765 22.2354C26.4942 22.2354 25.9412 23.0649 25.9412 24.0883C25.9412 25.1116 26.4942 25.9412 27.1765 25.9412Z" fill="black"/>
<path d="M33.353 25.9412C34.0352 25.9412 34.5883 25.1116 34.5883 24.0883C34.5883 23.0649 34.0352 22.2354 33.353 22.2354C32.6707 22.2354 32.1177 23.0649 32.1177 24.0883C32.1177 25.1116 32.6707 25.9412 33.353 25.9412Z" fill="black"/>
<path d="M17.2941 9.8824L14.8235 8.25185C15.5963 7.5996 16.5467 7.07721 17.6116 6.71939C18.6766 6.36157 19.8316 6.17651 21 6.17651C22.1683 6.17651 23.3234 6.36157 24.3883 6.71939C25.4532 7.07721 26.4036 7.5996 27.1764 8.25185L24.7058 9.8824C24.2422 9.49104 23.6719 9.17761 23.0329 8.96292C22.394 8.74823 21.701 8.63719 21 8.63719C20.2989 8.63719 19.6059 8.74823 18.967 8.96292C18.328 9.17761 17.7578 9.49104 17.2941 9.8824Z" fill="black"/>
<path d="M28.6863 6.17647C27.7246 5.12301 26.5418 4.2793 25.2166 3.70139C23.8914 3.12348 22.454 2.8246 21 2.8246C19.546 2.8246 18.1087 3.12348 16.7835 3.70139C15.4582 4.2793 14.2755 5.12301 13.3138 6.17647L11.1177 4.30955C12.3542 2.9551 13.8749 1.87034 15.5787 1.12731C17.2826 0.384278 19.1306 0 21 0C22.8694 0 24.7175 0.384278 26.4213 1.12731C28.1252 1.87034 29.6459 2.9551 30.8824 4.30955L28.6863 6.17647Z" fill="black"/>
</svg>
