<svg width="42" height="36" viewBox="0 0 42 36" fill="none" xmlns="http://www.w3.org/2000/svg">
<path d="M38.1994 0H2.81469C2.06819 0 1.35226 0.294585 0.824404 0.818949C0.296547 1.34331 0 2.0545 0 2.79607V34.7511C0.00101637 34.954 0.0530408 35.1535 0.151349 35.3314C0.249658 35.5093 0.391136 35.6599 0.562938 35.7697C0.740032 35.8769 0.94126 35.9386 1.14839 35.949C1.35552 35.9595 1.562 35.9184 1.74913 35.8296L7.63988 32.8937L13.5306 35.8296C13.7007 35.9082 13.8859 35.9489 14.0735 35.9489C14.261 35.9489 14.4463 35.9082 14.6163 35.8296L20.507 32.8937L26.3978 35.8296C26.5678 35.9082 26.7531 35.9489 26.9406 35.9489C27.1282 35.9489 27.3134 35.9082 27.4835 35.8296L33.3742 32.8937L39.265 35.8296C39.4353 35.9072 39.6204 35.948 39.8078 35.9494C40.0347 35.9488 40.2572 35.8867 40.4511 35.7697C40.6229 35.6599 40.7644 35.5093 40.8627 35.3314C40.961 35.1535 41.0131 34.954 41.0141 34.7511V2.79607C41.0141 2.0545 40.7175 1.34331 40.1897 0.818949C39.6618 0.294585 38.9459 0 38.1994 0ZM38.6015 32.8139L33.917 30.4771C33.747 30.3985 33.5617 30.3578 33.3742 30.3578C33.1867 30.3578 33.0014 30.3985 32.8314 30.4771L26.9406 33.413L21.0499 30.4771C20.8798 30.3985 20.6946 30.3578 20.507 30.3578C20.3195 30.3578 20.1342 30.3985 19.9642 30.4771L14.0735 33.413L8.18271 30.4771C8.01268 30.3985 7.82741 30.3578 7.63988 30.3578C7.45234 30.3578 7.26707 30.3985 7.09704 30.4771L2.41259 32.8139V2.79607C2.41259 2.69013 2.45496 2.58853 2.53036 2.51362C2.60577 2.43871 2.70805 2.39663 2.81469 2.39663H38.1994C38.306 2.39663 38.4083 2.43871 38.4837 2.51362C38.5591 2.58853 38.6015 2.69013 38.6015 2.79607V32.8139ZM34.5805 13.9803C34.5805 14.2982 34.4534 14.6029 34.2272 14.8277C34.001 15.0524 33.6941 15.1787 33.3742 15.1787H23.7238C23.4039 15.1787 23.0971 15.0524 22.8709 14.8277C22.6446 14.6029 22.5175 14.2982 22.5175 13.9803C22.5175 13.6625 22.6446 13.3577 22.8709 13.133C23.0971 12.9083 23.4039 12.782 23.7238 12.782H33.3742C33.6941 12.782 34.001 12.9083 34.2272 13.133C34.4534 13.3577 34.5805 13.6625 34.5805 13.9803ZM34.5805 20.3714C34.5805 20.6892 34.4534 20.994 34.2272 21.2187C34.001 21.4434 33.6941 21.5697 33.3742 21.5697H23.7238C23.4039 21.5697 23.0971 21.4434 22.8709 21.2187C22.6446 20.994 22.5175 20.6892 22.5175 20.3714C22.5175 20.0535 22.6446 19.7487 22.8709 19.524C23.0971 19.2993 23.4039 19.173 23.7238 19.173H33.3742C33.6941 19.173 34.001 19.2993 34.2272 19.524C34.4534 19.7487 34.5805 20.0535 34.5805 20.3714ZM17.2903 9.58652H7.63988C7.31995 9.58652 7.01312 9.71277 6.7869 9.9375C6.56067 10.1622 6.43358 10.467 6.43358 10.7848V23.5669C6.43358 23.8847 6.56067 24.1895 6.7869 24.4142C7.01312 24.6389 7.31995 24.7652 7.63988 24.7652H17.2903C17.6102 24.7652 17.917 24.6389 18.1432 24.4142C18.3695 24.1895 18.4965 23.8847 18.4965 23.5669V10.7848C18.4965 10.467 18.3695 10.1622 18.1432 9.9375C17.917 9.71277 17.6102 9.58652 17.2903 9.58652ZM16.084 22.3685H8.84618V11.9831H16.084V22.3685Z" fill="black"/>
</svg>
