<svg width="44" height="34" viewBox="0 0 44 34" fill="none" xmlns="http://www.w3.org/2000/svg">
<path d="M9.49576 0.604172C9.31217 0.41524 9.09346 0.264647 8.85214 0.160997C8.61082 0.0573467 8.35161 0.00267121 8.08933 9.54586e-05C7.82706 -0.0024803 7.56684 0.0470934 7.32357 0.145984C7.08029 0.244875 6.85872 0.391146 6.67151 0.576436C4.55387 2.69984 2.87408 5.22515 1.72902 8.00666C0.583974 10.7882 -0.00366291 13.7708 1.71785e-05 16.7826C-0.00341745 19.9099 0.630465 23.0045 1.86232 25.8744C3.09418 28.7443 4.89772 31.3282 7.16101 33.4658C7.54194 33.8209 8.04512 34.0123 8.56371 33.9994C9.0823 33.9864 9.57547 33.7701 9.93851 33.3964C10.8075 32.52 10.7003 31.1248 9.86426 30.3177C8.04788 28.5718 6.60246 26.4717 5.61584 24.1449C4.62921 21.8181 4.122 19.3132 4.12501 16.7826C4.12501 11.6625 6.16276 7.0195 9.46826 3.64126C10.2658 2.82305 10.3483 1.46399 9.49576 0.604172ZM14.3385 5.49402C13.9763 5.11817 13.4812 4.90244 12.9616 4.89412C12.442 4.8858 11.9403 5.08557 11.5665 5.44965C10.0786 6.93062 8.89761 8.69525 8.09218 10.6409C7.28676 12.5865 6.87301 14.6742 6.87501 16.7826C6.87178 19.0119 7.3336 21.2169 8.23046 23.2544C9.12733 25.2919 10.4392 27.1164 12.0808 28.6092C12.4582 28.9455 12.9495 29.1225 13.4527 29.1034C13.956 29.0842 14.4327 28.8706 14.784 28.5066C15.686 27.5968 15.5183 26.1656 14.6713 25.3613C13.5102 24.2606 12.5854 22.9313 11.9539 21.4558C11.3225 19.9802 10.9978 18.3897 11 16.7826C11 13.5929 12.2568 10.6973 14.3 8.57272C15.0865 7.75728 15.2158 6.37325 14.3385 5.49125V5.49402ZM29.6615 5.49402C30.0237 5.11817 30.5188 4.90244 31.0384 4.89412C31.558 4.8858 32.0597 5.08557 32.4335 5.44965C33.9214 6.93062 35.1024 8.69525 35.9078 10.6409C36.7132 12.5865 37.127 14.6742 37.125 16.7826C37.1282 19.0119 36.6664 21.2169 35.7695 23.2544C34.8727 25.2919 33.5608 27.1164 31.9192 28.6092C31.5418 28.9455 31.0505 29.1225 30.5473 29.1034C30.044 29.0842 29.5673 28.8706 29.216 28.5066C28.314 27.5968 28.4817 26.1656 29.3287 25.3613C30.4898 24.2606 31.4146 22.9313 32.0461 21.4558C32.6775 19.9802 33.0022 18.3897 33 16.7826C33 13.5929 31.7432 10.6973 29.7 8.57272C28.9135 7.75728 28.7842 6.37325 29.6615 5.49125V5.49402ZM34.5042 0.606946C34.6878 0.418014 34.9065 0.26742 35.1479 0.16377C35.3892 0.0601201 35.6484 0.00544527 35.9107 0.00286952C36.173 0.00029376 36.4332 0.0498668 36.6764 0.148758C36.9197 0.247649 37.1413 0.393919 37.3285 0.57921C39.4458 2.70229 41.1254 5.22714 42.2705 8.00815C43.4155 10.7892 44.0033 13.7713 44 16.7826C44.0034 19.9099 43.3695 23.0045 42.1377 25.8744C40.9058 28.7443 39.1023 31.3282 36.839 33.4658C36.4581 33.8209 35.9549 34.0123 35.4363 33.9994C34.9177 33.9864 34.4245 33.7701 34.0615 33.3964C33.1925 32.52 33.2997 31.1248 34.1385 30.3177C35.9544 28.5716 37.3993 26.4713 38.3854 24.1445C39.3716 21.8177 39.8784 19.313 39.875 16.7826C39.875 11.6625 37.8372 7.0195 34.5317 3.64126C33.7342 2.82305 33.6517 1.46399 34.5042 0.604172V0.606946ZM22 12.6222C20.906 12.6222 19.8568 13.0605 19.0832 13.8407C18.3096 14.6209 17.875 15.6792 17.875 16.7826C17.875 17.886 18.3096 18.9442 19.0832 19.7244C19.8568 20.5046 20.906 20.943 22 20.943C23.094 20.943 24.1432 20.5046 24.9168 19.7244C25.6904 18.9442 26.125 17.886 26.125 16.7826C26.125 15.6792 25.6904 14.6209 24.9168 13.8407C24.1432 13.0605 23.094 12.6222 22 12.6222Z" fill="black"/>
</svg>
