<svg width="96" height="52" viewBox="0 0 96 52" fill="none" xmlns="http://www.w3.org/2000/svg">
<path d="M48.1641 23.8928L48.9208 22.5986C53.1091 15.688 57.2712 8.76445 61.4856 1.89266C63.0252 -0.630885 65.2172 -0.630885 66.7698 1.89266C70.9581 8.73857 75.0941 15.6362 79.2824 22.4951C84.5884 31.2347 89.9074 39.9571 95.2395 48.6623C95.4529 48.9725 95.6447 49.2967 95.8136 49.6329C95.9389 49.8608 96.0031 50.117 95.9999 50.3767C95.9967 50.6364 95.9261 50.8909 95.7951 51.1157C95.664 51.3406 95.4769 51.5282 95.2516 51.6606C95.0264 51.793 94.7706 51.8657 94.5088 51.8717C94.0913 51.8717 93.6738 51.8717 93.2041 51.8717H65.7391C64.9301 51.8717 64.1081 51.9494 63.6384 51.1082C63.1687 50.267 63.6384 49.5423 64.0951 48.8305C65.5694 46.527 67.0699 44.2234 68.5051 41.8811C69.5995 40.2642 70.1839 38.3608 70.1839 36.4134C70.1839 34.4659 69.5995 32.5626 68.5051 30.9457C67.1091 28.681 65.6477 26.4551 64.1212 24.0739C63.8211 24.501 63.5732 24.8116 63.3644 25.1481C58.0671 33.4477 52.7785 41.756 47.4986 50.0729C47.1912 50.6698 46.7123 51.1629 46.1225 51.49C45.5326 51.8171 44.8582 51.9634 44.1846 51.9105C41.014 51.807 37.8304 51.9105 34.6599 51.9105C34.2095 51.9738 33.7502 51.906 33.3379 51.7153C32.9257 51.5246 32.5781 51.2193 32.3374 50.8364C32.1268 50.4239 32.0417 49.9595 32.0927 49.4999C32.1437 49.0403 32.3284 48.6054 32.6245 48.2482C33.9553 46.2035 35.2601 44.1458 36.5387 42.0752C37.6381 40.4602 38.2256 38.5562 38.2256 36.6075C38.2256 34.6589 37.6381 32.7548 36.5387 31.1399C35.1296 28.8363 33.6422 26.5716 32.0634 24.1127L31.1501 25.4975C25.9311 33.7669 20.5816 42.0234 15.3496 50.3187C15.0594 50.8633 14.6137 51.311 14.0683 51.6056C13.523 51.9002 12.9021 52.0288 12.2834 51.9753C9.07374 51.8976 5.85099 51.9753 2.64131 51.9753C2.19029 52.0408 1.72978 51.9755 1.31536 51.7872C0.900941 51.5989 0.55032 51.2956 0.305811 50.9141C0.072432 50.5116 -0.0313898 50.0481 0.00825262 49.5855C0.047895 49.1229 0.229106 48.6834 0.527617 48.3258C10.1915 32.7963 19.864 17.2668 29.5453 1.73737C30.9414 -0.501466 33.1986 -0.501466 34.5816 1.73737C38.8612 8.71269 43.0886 15.7268 47.329 22.7281L48.1641 23.8928Z" fill="#2B2B2B"/>
</svg>
