<svg width="15" height="12" viewBox="0 0 15 12" fill="none" xmlns="http://www.w3.org/2000/svg">
<path d="M15 10.5V1.5C15 0.67 14.4092 0 13.6772 0H1.32275C0.590829 0 0 0.67 0 1.5V10.5C0 11.33 0.590829 12 1.32275 12H13.6772C14.4092 12 15 11.33 15 10.5ZM13.8448 1.39C14.1358 1.72 13.9771 2.06 13.8183 2.23L10.2381 5.95L13.6772 10.01C13.7831 10.15 13.8536 10.37 13.7302 10.52C13.6155 10.68 13.351 10.67 13.2363 10.57L9.38272 6.84L7.49559 8.79L5.61728 6.84L1.76367 10.57C1.64903 10.67 1.38448 10.68 1.26984 10.52C1.14638 10.37 1.21693 10.15 1.32275 10.01L4.7619 5.95L1.18166 2.23C1.02293 2.06 0.864197 1.72 1.1552 1.39C1.44621 1.06 1.74603 1.22 1.99295 1.46L7.49559 6.5L13.0071 1.46C13.254 1.22 13.5538 1.06 13.8448 1.39Z" fill="#585858"/>
</svg>
