<svg width="42" height="42" viewBox="0 0 42 42" fill="none" xmlns="http://www.w3.org/2000/svg">
<g filter="url(#filter0_d_50_140)">
<path fill-rule="evenodd" clip-rule="evenodd" d="M6.125 17C6.125 20.9451 7.69218 24.7286 10.4818 27.5182C13.2714 30.3078 17.0549 31.875 21 31.875C24.9451 31.875 28.7286 30.3078 31.5182 27.5182C34.3078 24.7286 35.875 20.9451 35.875 17C35.875 13.0549 34.3078 9.27139 31.5182 6.48179C28.7286 3.69218 24.9451 2.125 21 2.125C17.0549 2.125 13.2714 3.69218 10.4818 6.48179C7.69218 9.27139 6.125 13.0549 6.125 17ZM38 17C38 21.5087 36.2089 25.8327 33.0208 29.0208C29.8327 32.2089 25.5087 34 21 34C16.4913 34 12.1673 32.2089 8.97919 29.0208C5.79107 25.8327 4 21.5087 4 17C4 12.4913 5.79107 8.1673 8.97919 4.97919C12.1673 1.79107 16.4913 0 21 0C25.5087 0 29.8327 1.79107 33.0208 4.97919C36.2089 8.1673 38 12.4913 38 17ZM13.5625 15.9375C13.2807 15.9375 13.0105 16.0494 12.8112 16.2487C12.6119 16.448 12.5 16.7182 12.5 17C12.5 17.2818 12.6119 17.552 12.8112 17.7513C13.0105 17.9506 13.2807 18.0625 13.5625 18.0625H25.8726L21.3102 22.6227C21.2115 22.7215 21.1331 22.8388 21.0796 22.9679C21.0262 23.097 20.9987 23.2353 20.9987 23.375C20.9987 23.5147 21.0262 23.653 21.0796 23.7821C21.1331 23.9112 21.2115 24.0285 21.3102 24.1273C21.409 24.226 21.5263 24.3044 21.6554 24.3579C21.7845 24.4113 21.9228 24.4388 22.0625 24.4388C22.2022 24.4388 22.3405 24.4113 22.4696 24.3579C22.5987 24.3044 22.716 24.226 22.8148 24.1273L29.1898 17.7523C29.2887 17.6536 29.3672 17.5363 29.4208 17.4072C29.4743 17.2781 29.5019 17.1398 29.5019 17C29.5019 16.8602 29.4743 16.7219 29.4208 16.5928C29.3672 16.4637 29.2887 16.3464 29.1898 16.2477L22.8148 9.87275C22.716 9.77396 22.5987 9.6956 22.4696 9.64214C22.3405 9.58867 22.2022 9.56116 22.0625 9.56116C21.9228 9.56116 21.7845 9.58867 21.6554 9.64214C21.5263 9.6956 21.409 9.77396 21.3102 9.87275C21.2115 9.97154 21.1331 10.0888 21.0796 10.2179C21.0262 10.347 20.9987 10.4853 20.9987 10.625C20.9987 10.7647 21.0262 10.903 21.0796 11.0321C21.1331 11.1612 21.2115 11.2785 21.3102 11.3773L25.8726 15.9375H13.5625Z" fill="url(#paint0_linear_50_140)"/>
</g>
<defs>
<filter id="filter0_d_50_140" x="0" y="0" width="42" height="42" filterUnits="userSpaceOnUse" color-interpolation-filters="sRGB">
<feFlood flood-opacity="0" result="BackgroundImageFix"/>
<feColorMatrix in="SourceAlpha" type="matrix" values="0 0 0 0 0 0 0 0 0 0 0 0 0 0 0 0 0 0 127 0" result="hardAlpha"/>
<feOffset dy="4"/>
<feGaussianBlur stdDeviation="2"/>
<feComposite in2="hardAlpha" operator="out"/>
<feColorMatrix type="matrix" values="0 0 0 0 0 0 0 0 0 0 0 0 0 0 0 0 0 0 0.25 0"/>
<feBlend mode="normal" in2="BackgroundImageFix" result="effect1_dropShadow_50_140"/>
<feBlend mode="normal" in="SourceGraphic" in2="effect1_dropShadow_50_140" result="shape"/>
</filter>
<linearGradient id="paint0_linear_50_140" x1="38" y1="1.66666" x2="2.2375" y2="3.29262" gradientUnits="userSpaceOnUse">
<stop stop-color="#FFB800"/>
<stop offset="1" stop-color="#00CECE"/>
</linearGradient>
</defs>
</svg>
