<svg width="1600" height="1268" viewBox="0 0 1600 1268" fill="none" xmlns="http://www.w3.org/2000/svg">
<path d="M1233 215.5C1475.4 243.9 1578.67 83.6667 1600 0L1599 1268H0V1065.5C0 933.5 103.5 925.5 121 882C206.5 656 403.5 670 433.5 671C463.5 672 442.5 673 559.5 677C676.5 681 827.5 494.5 864 420.5C947.5 218.5 1110 210.5 1233 215.5Z" fill="url(#paint0_linear_158_2)"/>
<circle cx="243.971" cy="674.991" r="72.5" transform="rotate(-40.05 243.971 674.991)" fill="url(#paint1_linear_158_2)"/>
<path opacity="0.2" d="M336.345 763.904C351.626 782.083 349.277 809.207 331.098 824.488C312.919 839.769 285.795 837.42 270.514 819.241C255.233 801.062 257.582 773.938 275.761 758.657C293.94 743.376 321.064 745.725 336.345 763.904Z" fill="url(#paint2_linear_158_2)"/>
<defs>
<linearGradient id="paint0_linear_158_2" x1="908.5" y1="246.5" x2="908.5" y2="1268" gradientUnits="userSpaceOnUse">
<stop stop-color="#F6F7FF"/>
<stop offset="1" stop-color="#F4F4F4" stop-opacity="0"/>
</linearGradient>
<linearGradient id="paint1_linear_158_2" x1="290.96" y1="619.137" x2="201.841" y2="725.156" gradientUnits="userSpaceOnUse">
<stop stop-color="#E8FFE2"/>
<stop offset="1" stop-color="#E8FFE2" stop-opacity="0"/>
</linearGradient>
<linearGradient id="paint2_linear_158_2" x1="303" y1="743.5" x2="303" y2="831" gradientUnits="userSpaceOnUse">
<stop stop-color="#00CECE"/>
<stop offset="1" stop-color="#00CECE" stop-opacity="0"/>
</linearGradient>
</defs>
</svg>
