<svg width="34" height="34" viewBox="0 0 34 34" fill="none" xmlns="http://www.w3.org/2000/svg">
<path fill-rule="evenodd" clip-rule="evenodd" d="M31.875 17C31.875 20.9451 30.3078 24.7286 27.5182 27.5182C24.7286 30.3078 20.9451 31.875 17 31.875C13.0549 31.875 9.27139 30.3078 6.48179 27.5182C3.69218 24.7286 2.125 20.9451 2.125 17C2.125 13.0549 3.69218 9.27139 6.48179 6.48179C9.27139 3.69218 13.0549 2.125 17 2.125C20.9451 2.125 24.7286 3.69218 27.5182 6.48179C30.3078 9.27139 31.875 13.0549 31.875 17ZM0 17C0 21.5087 1.79107 25.8327 4.97918 29.0208C8.1673 32.2089 12.4913 34 17 34C21.5087 34 25.8327 32.2089 29.0208 29.0208C32.2089 25.8327 34 21.5087 34 17C34 12.4913 32.2089 8.1673 29.0208 4.97919C25.8327 1.79107 21.5087 0 17 0C12.4913 0 8.1673 1.79107 4.97918 4.97919C1.79107 8.1673 0 12.4913 0 17ZM24.4375 15.9375C24.7193 15.9375 24.9895 16.0494 25.1888 16.2487C25.3881 16.448 25.5 16.7182 25.5 17C25.5 17.2818 25.3881 17.552 25.1888 17.7513C24.9895 17.9506 24.7193 18.0625 24.4375 18.0625H12.1274L16.6898 22.6227C16.7885 22.7215 16.8669 22.8388 16.9204 22.9679C16.9738 23.097 17.0013 23.2353 17.0013 23.375C17.0013 23.5147 16.9738 23.653 16.9204 23.7821C16.8669 23.9112 16.7885 24.0285 16.6898 24.1273C16.591 24.226 16.4737 24.3044 16.3446 24.3579C16.2155 24.4113 16.0772 24.4388 15.9375 24.4388C15.7978 24.4388 15.6595 24.4113 15.5304 24.3579C15.4013 24.3044 15.284 24.226 15.1852 24.1273L8.81025 17.7523C8.7113 17.6536 8.6328 17.5363 8.57924 17.4072C8.52567 17.2781 8.4981 17.1398 8.4981 17C8.4981 16.8602 8.52567 16.7219 8.57924 16.5928C8.6328 16.4637 8.7113 16.3464 8.81025 16.2477L15.1852 9.87275C15.284 9.77396 15.4013 9.6956 15.5304 9.64214C15.6595 9.58867 15.7978 9.56116 15.9375 9.56116C16.0772 9.56116 16.2155 9.58867 16.3446 9.64214C16.4737 9.6956 16.591 9.77396 16.6898 9.87275C16.7885 9.97154 16.8669 10.0888 16.9204 10.2179C16.9738 10.347 17.0013 10.4853 17.0013 10.625C17.0013 10.7647 16.9738 10.903 16.9204 11.0321C16.8669 11.1612 16.7885 11.2785 16.6898 11.3773L12.1274 15.9375H24.4375Z" fill="#474747"/>
</svg>
