<svg width="20" height="20" viewBox="0 0 20 20" fill="none" xmlns="http://www.w3.org/2000/svg">
<path d="M19.2 0H0.8C0.3575 0 0 0.3575 0 0.8V19.2C0 19.6425 0.3575 20 0.8 20H19.2C19.6425 20 20 19.6425 20 19.2V0.8C20 0.3575 19.6425 0 19.2 0ZM14.5875 6.3425L9.3225 13.6425C9.24891 13.7452 9.1519 13.8289 9.03952 13.8866C8.92713 13.9444 8.8026 13.9745 8.67625 13.9745C8.5499 13.9745 8.42537 13.9444 8.31298 13.8866C8.2006 13.8289 8.10359 13.7452 8.03 13.6425L4.9125 9.3225C4.8175 9.19 4.9125 9.005 5.075 9.005H6.2475C6.5025 9.005 6.745 9.1275 6.895 9.3375L8.675 11.8075L12.605 6.3575C12.755 6.15 12.995 6.025 13.2525 6.025H14.425C14.5875 6.025 14.6825 6.21 14.5875 6.3425Z" fill="black"/>
</svg>
