<svg width="65" height="65" viewBox="0 0 65 65" fill="none" xmlns="http://www.w3.org/2000/svg">
<path d="M44.3257 26.2859L64.7311 32.308C65.0896 32.4147 65.0896 32.5856 64.7311 32.6914L40.6426 39.8016C40.2841 39.9072 39.9073 40.2835 39.8014 40.6423L32.6915 64.7314C32.639 64.9104 32.5691 65 32.4998 65C32.4308 65 32.3614 64.9104 32.3084 64.7314L26.8405 46.2059L38.6565 38.7849L39.173 38.461L44.3257 26.2862V26.2859ZM9.80191 37.1109L11.9949 37.7581L11.5417 53.1121L14.5187 52.099L14.9158 38.6207L17.1075 39.2676L16.7521 51.3393L25.8376 48.2478L26.4635 50.3694L16.682 53.6976L16.6238 55.6882L27.0906 52.4921L27.716 54.6124L14.3237 58.7019L14.4486 54.4581L9.23849 56.2308L9.80191 37.1109ZM55.1985 37.1109L55.7611 56.2308L50.4977 54.4398L50.6234 58.7019L37.2796 54.6274L37.9055 52.5081L48.3232 55.6882L48.2646 53.6791L38.5359 50.3694L39.1626 48.2478L48.1953 51.3205L47.8398 39.2831L50.0323 38.6359L50.4286 52.0812L53.4585 53.1121L53.0063 37.7581L55.1985 37.1109ZM46.3803 16.4668L37.6277 37.1452L18.6119 49.0867L27.3651 28.4086L46.3801 16.4668H46.3803ZM32.4998 0C32.5691 0 32.639 0.089375 32.6915 0.268633L38.2965 19.258L25.8196 27.0936L20.8755 38.7735L10.8792 35.8231L9.84913 35.5192L0.268505 32.6914C-0.0895018 32.5856 -0.0895018 32.4147 0.268505 32.308L24.3581 25.1982C24.7161 25.0925 25.0929 24.7168 25.1985 24.3577L32.3084 0.268633C32.3614 0.089375 32.4308 0 32.5001 0H32.4998ZM35.1656 29.7362C33.7564 28.3265 31.4712 28.3265 30.0613 29.7362C28.6514 31.1454 28.6514 33.4308 30.0613 34.8408C31.471 36.2499 33.7561 36.2499 35.1656 34.8408C36.5755 33.4308 36.5755 31.1454 35.1656 29.7362ZM14.3237 5.87488L27.8307 9.99883L27.2049 12.1189L16.6238 8.88824L16.7145 11.9808L26.3756 14.9312L25.7492 17.0513L16.7833 14.3127L17.1197 25.7283L14.928 26.3758L14.5522 13.6312L11.5401 12.7113L11.9685 27.2492L9.77677 27.8964L9.23976 9.6977L14.4837 11.2988L14.3237 5.87463V5.87488ZM50.6234 5.87488L50.4629 11.3156L55.7599 9.6977L55.2234 27.8964L53.0314 27.2492L53.4602 12.7113L50.3943 13.6475L50.0198 26.3605L47.8281 25.7131L48.1633 14.3289L39.2507 17.0513L38.6255 14.9312L48.2321 11.9971L48.3235 8.88824L37.791 12.1037L37.1651 9.98436L50.6236 5.87488H50.6234Z" fill="white"/>
</svg>
