<svg width="18" height="14" viewBox="0 0 18 14" fill="none" xmlns="http://www.w3.org/2000/svg">
<path d="M15.2377 1.16111C14.0902 0.624476 12.8602 0.227835 11.574 0.00229442C11.5626 1.40627e-05 11.5507 0.00148361 11.5401 0.00649985C11.5295 0.0115161 11.5206 0.0198309 11.5148 0.0302926C11.3573 0.317274 11.1818 0.69136 11.0588 0.986896C9.69465 0.775539 8.3078 0.775539 6.94366 0.986896C6.80666 0.659365 6.65218 0.340002 6.48092 0.0302926C6.47512 0.0197021 6.46634 0.0111992 6.45575 0.00591873C6.44516 0.000638253 6.43328 -0.00116878 6.42167 0.000738897C5.13621 0.22628 3.90625 0.62292 2.75803 1.16033C2.74815 1.16463 2.73978 1.17195 2.73403 1.18133C0.400099 4.73943 -0.239633 8.20964 0.0746083 11.6363C0.0754827 11.6447 0.0779949 11.6528 0.0819918 11.6602C0.0859887 11.6675 0.0913868 11.674 0.0978576 11.6791C1.46011 12.7076 2.97953 13.491 4.59248 13.9967C4.60372 14.0003 4.61575 14.0003 4.62699 13.9967C4.63823 13.9931 4.64815 13.986 4.65548 13.9765C5.00256 13.4951 5.31013 12.9844 5.57495 12.4498C5.57862 12.4425 5.58074 12.4345 5.58116 12.4262C5.58158 12.418 5.58029 12.4098 5.57737 12.4021C5.57445 12.3944 5.56998 12.3875 5.56426 12.3818C5.55854 12.376 5.5517 12.3717 5.5442 12.3689C5.05972 12.1797 4.59029 11.9514 4.14024 11.6861C4.13215 11.6813 4.12534 11.6745 4.12041 11.6663C4.11548 11.6581 4.11259 11.6488 4.11199 11.6392C4.1114 11.6295 4.11312 11.6199 4.117 11.6111C4.12088 11.6023 4.12681 11.5947 4.13424 11.5889C4.22874 11.5165 4.32324 11.4411 4.41323 11.3657C4.42133 11.3589 4.43109 11.3546 4.44142 11.3532C4.45175 11.3518 4.46224 11.3534 4.47173 11.3579C7.4169 12.7298 10.6066 12.7298 13.5172 11.3579C13.5267 11.3532 13.5373 11.3513 13.5478 11.3526C13.5583 11.3538 13.5682 11.3581 13.5765 11.3649C13.6665 11.4411 13.7602 11.5165 13.8555 11.5889C13.863 11.5946 13.869 11.6021 13.873 11.6108C13.877 11.6195 13.8789 11.6291 13.8784 11.6387C13.878 11.6484 13.8752 11.6577 13.8704 11.666C13.8656 11.6743 13.859 11.6812 13.851 11.6861C13.4025 11.9536 12.936 12.1799 12.4462 12.3681C12.4387 12.371 12.4319 12.3754 12.4262 12.3812C12.4204 12.387 12.416 12.394 12.413 12.4018C12.4101 12.4095 12.4089 12.4178 12.4093 12.4261C12.4097 12.4343 12.4118 12.4424 12.4155 12.4498C12.6855 12.9841 12.9945 13.4927 13.3342 13.9757C13.3413 13.9856 13.3511 13.993 13.3624 13.9969C13.3737 14.0008 13.3858 14.001 13.3972 13.9975C15.0129 13.4932 16.5348 12.7094 17.8986 11.6791C17.9052 11.6743 17.9108 11.668 17.915 11.6608C17.9191 11.6535 17.9217 11.6455 17.9226 11.6371C18.2976 7.67535 17.2941 4.23313 15.2609 1.18288C15.2559 1.17297 15.2477 1.16524 15.2377 1.16111ZM6.01519 9.54967C5.12871 9.54967 4.39748 8.71828 4.39748 7.69868C4.39748 6.6783 5.11446 5.84769 6.01519 5.84769C6.92266 5.84769 7.64714 6.6853 7.63289 7.69868C7.63289 8.71906 6.91591 9.54967 6.01519 9.54967ZM11.9963 9.54967C11.109 9.54967 10.3786 8.71828 10.3786 7.69868C10.3786 6.6783 11.0948 5.84769 11.9963 5.84769C12.9037 5.84769 13.6282 6.6853 13.614 7.69868C13.614 8.71906 12.9045 9.54967 11.9963 9.54967Z" fill="#585858"/>
</svg>
