<svg width="16" height="12" viewBox="0 0 16 12" fill="none" xmlns="http://www.w3.org/2000/svg">
<path d="M16 1.42342C15.4116 1.66396 14.7795 1.82649 14.115 1.89995C14.8007 1.52145 15.3136 0.925741 15.5582 0.223974C14.914 0.576974 14.209 0.825448 13.4738 0.958593C12.9794 0.471576 12.3245 0.148773 11.6109 0.0403016C10.8973 -0.06817 10.1648 0.0437586 9.52717 0.35871C8.88955 0.673661 8.38247 1.17401 8.08467 1.78209C7.78686 2.39016 7.71499 3.07193 7.88021 3.72154C6.57496 3.66108 5.29807 3.34809 4.13242 2.80288C2.96677 2.25767 1.93841 1.49244 1.11407 0.556828C0.832203 1.0054 0.670131 1.52549 0.670131 2.07938C0.669817 2.578 0.802912 3.069 1.05761 3.50879C1.3123 3.94858 1.68073 4.32357 2.13019 4.60049C1.60893 4.58519 1.09918 4.45524 0.643354 4.22148V4.26048C0.643302 4.95983 0.905511 5.63765 1.38549 6.17894C1.86547 6.72023 2.53365 7.09165 3.27667 7.23017C2.79312 7.3509 2.28615 7.36869 1.79406 7.28218C2.0037 7.88392 2.41205 8.41013 2.96194 8.78712C3.51184 9.16412 4.17575 9.37303 4.86074 9.38462C3.69794 10.2268 2.26188 10.6836 0.783581 10.6816C0.521717 10.6816 0.260073 10.6675 0 10.6393C1.50056 11.5294 3.24731 12.0018 5.03127 12C11.0702 12 14.3715 7.38554 14.3715 3.38349C14.3715 3.25347 14.368 3.12215 14.3617 2.99213C15.0038 2.56369 15.5581 2.03315 15.9986 1.42537L16 1.42342Z" fill="#585858"/>
</svg>
