<svg width="38" height="38" viewBox="0 0 38 38" fill="none" xmlns="http://www.w3.org/2000/svg">
<path fill-rule="evenodd" clip-rule="evenodd" d="M20.4121 0.0401806C24.6981 0.308052 28.7161 2.45102 31.6627 5.3976C35.145 9.14779 37.0201 13.7016 37.0201 19.059C37.0201 23.345 35.4129 27.363 32.7342 30.8453C30.0555 34.0598 26.3053 36.4706 22.0194 37.2742C17.7334 38.0779 13.4475 37.5421 9.6973 35.3991C5.94711 33.2562 3.00053 30.0417 1.3933 26.0237C-0.213924 22.0056 -0.481795 17.4518 0.85756 13.4337C2.19691 9.14779 4.60775 5.66547 8.35795 3.25463C11.8403 0.843794 16.1262 -0.22769 20.4121 0.0401806ZM21.7515 34.5955C25.2338 33.7919 28.4483 31.9168 30.8591 28.9702C33.0021 26.0237 34.3414 22.5413 34.0736 18.7911C34.0736 14.5052 32.4663 10.2193 29.5198 7.2727C26.841 4.59399 23.6266 2.98676 19.8764 2.71889C16.3941 2.45102 12.6439 3.25463 9.6973 5.3976C6.75072 7.54057 4.60775 10.4871 3.53627 14.2373C2.46479 17.7197 2.46479 21.4699 4.07201 24.9522C5.67924 28.4345 8.09008 31.1132 11.3045 32.9883C14.519 34.8634 18.2692 35.3991 21.7515 34.5955V34.5955Z" fill="#171817"/>
<path fill-rule="evenodd" clip-rule="evenodd" d="M13.4475 10.7555L15.5289 9.64111L27.5831 17.6772V19.9059L15.5289 27.9421L13.4475 26.8277V10.7555ZM16.1262 13.2574V24.3258L24.4275 18.7916L16.1262 13.2574Z" fill="#171817"/>
</svg>
