<svg width="90" height="90" viewBox="0 0 90 90" fill="none" xmlns="http://www.w3.org/2000/svg">
<circle opacity="0.3" cx="45" cy="45" r="45" fill="url(#paint0_linear_94_90)"/>
<circle opacity="0.3" cx="45" cy="45" r="37" fill="url(#paint1_linear_94_90)"/>
<circle cx="45" cy="45" r="29" fill="url(#paint2_linear_94_90)"/>
<path d="M53.0902 46.1254L38.7741 54.7389C37.5592 55.4691 36 54.5849 36 53.1128V35.8859C36 34.4161 37.5569 33.5295 38.7741 34.2621L53.0902 42.8756C53.3665 43.0392 53.5963 43.2756 53.7561 43.561C53.9158 43.8464 54 44.1705 54 44.5005C54 44.8305 53.9158 45.1546 53.7561 45.44C53.5963 45.7254 53.3665 45.9618 53.0902 46.1254Z" fill="white"/>
<defs>
<linearGradient id="paint0_linear_94_90" x1="90" y1="4.41175" x2="-4.66545" y2="8.71575" gradientUnits="userSpaceOnUse">
<stop stop-color="#FFB800"/>
<stop offset="1" stop-color="#00CECE"/>
</linearGradient>
<linearGradient id="paint1_linear_94_90" x1="82" y1="11.6274" x2="4.16396" y2="15.1663" gradientUnits="userSpaceOnUse">
<stop stop-color="#FFB800"/>
<stop offset="1" stop-color="#00CECE"/>
</linearGradient>
<linearGradient id="paint2_linear_94_90" x1="74" y1="18.8431" x2="12.9934" y2="21.6168" gradientUnits="userSpaceOnUse">
<stop stop-color="#FFB800"/>
<stop offset="1" stop-color="#00CECE"/>
</linearGradient>
</defs>
</svg>
