<svg width="18" height="12" viewBox="0 0 18 12" fill="none" xmlns="http://www.w3.org/2000/svg">
<path d="M17.6203 1.87347C17.5178 1.51105 17.3173 1.1806 17.0386 0.915205C16.76 0.649811 16.413 0.458778 16.0325 0.361225C14.6311 1.09478e-07 9 0 9 0C9 0 3.36887 1.09478e-07 1.96752 0.361225C1.587 0.458778 1.24005 0.649811 0.961397 0.915205C0.682748 1.1806 0.482174 1.51105 0.379749 1.87347C0.118085 3.23465 -0.00889312 4.61622 0.000483683 6C-0.00889312 7.38378 0.118085 8.76535 0.379749 10.1265C0.482174 10.489 0.682748 10.8194 0.961397 11.0848C1.24005 11.3502 1.587 11.5412 1.96752 11.6388C3.36887 12 9 12 9 12C9 12 14.6311 12 16.0325 11.6388C16.413 11.5412 16.76 11.3502 17.0386 11.0848C17.3173 10.8194 17.5178 10.489 17.6203 10.1265C17.8819 8.76535 18.0089 7.38378 17.9995 6C18.0089 4.61622 17.8819 3.23465 17.6203 1.87347ZM7.2001 8.57143V3.42857L11.8734 6L7.2001 8.57143Z" fill="#585858"/>
</svg>
