<svg width="44" height="44" viewBox="0 0 44 44" fill="none" xmlns="http://www.w3.org/2000/svg">
<g clip-path="url(#clip0_47_919)">
<path d="M37.5833 11.8193H6.4167C2.8783 11.8193 0 14.6976 0 18.2359V36.5693C0 40.1076 2.8783 42.9859 6.4167 42.9859H37.5834C41.1217 42.9859 44.0001 40.1076 44.0001 36.5693V18.2359C44 14.6976 41.1217 11.8193 37.5833 11.8193ZM42.1667 36.5693C42.1667 39.0956 40.1115 41.1526 37.5834 41.1526H6.4167C3.8885 41.1526 1.83339 39.0956 1.83339 36.5693V18.2359C1.83339 15.7096 3.88859 13.6526 6.4167 13.6526H37.5834C40.1116 13.6526 42.1667 15.7096 42.1667 18.2359V36.5693Z" fill="#83EDCB"/>
<path d="M35.75 24.6523C34.2338 24.6523 33 25.8861 33 27.4023C33 28.9185 34.2338 30.1523 35.75 30.1523C37.2662 30.1523 38.5 28.9185 38.5 27.4023C38.5 25.8861 37.2662 24.6523 35.75 24.6523ZM35.75 28.319C35.2458 28.319 34.8333 27.9083 34.8333 27.4023C34.8333 26.8963 35.2458 26.4856 35.75 26.4856C36.2542 26.4856 36.6667 26.8963 36.6667 27.4023C36.6667 27.9083 36.2542 28.319 35.75 28.319Z" fill="#FF512F"/>
<path d="M43.083 20.9858H35.7497C32.2114 20.9858 29.333 23.8641 29.333 27.4025C29.333 30.9408 32.2113 33.8192 35.7497 33.8192H43.083C43.589 33.8192 43.9997 33.4085 43.9997 32.9025V21.9025C43.9997 21.3965 43.589 20.9858 43.083 20.9858ZM42.1664 31.9858H35.7497C33.2215 31.9858 31.1664 29.9288 31.1664 27.4025C31.1664 24.8762 33.2216 22.8192 35.7497 22.8192H42.1664V31.9858Z" fill="#83EDCB"/>
<path d="M37.486 12.3253L33.6048 4.56294C32.822 2.99724 31.4708 1.84413 29.8025 1.31613C28.1342 0.789937 26.3668 0.954937 24.8232 1.78363L5.982 11.9293C5.5365 12.1676 5.3697 12.725 5.60981 13.1705C5.85 13.616 6.40731 13.7828 6.851 13.5427L25.6958 3.40063C26.7958 2.80663 28.0626 2.68744 29.2506 3.06513C30.4423 3.44094 31.4066 4.26594 31.9658 5.38433L35.847 13.1466C36.0083 13.4674 36.331 13.6526 36.6665 13.6526C36.804 13.6526 36.9433 13.6214 37.0753 13.5554C37.5281 13.3281 37.7115 12.7781 37.486 12.3253Z" fill="#83EDCB"/>
<path d="M33.8087 4.96977C33.5667 4.52247 33.0094 4.35747 32.5657 4.59577L18.9459 11.9291C18.5004 12.1693 18.3336 12.7248 18.5737 13.1703C18.7387 13.4783 19.054 13.6525 19.3804 13.6525C19.5271 13.6525 19.6774 13.6177 19.8167 13.5443L33.4365 6.21097C33.882 5.97077 34.0489 5.41527 33.8087 4.96977Z" fill="#FF512F"/>
<path d="M16.5 6.31934H10.0833C4.5247 6.31934 0 10.8421 0 16.4026V18.2359C0 18.7419 0.410695 19.1526 0.916695 19.1526C1.4227 19.1526 1.83339 18.7419 1.83339 18.2359V16.4026C1.83339 11.8541 5.53489 8.15264 10.0834 8.15264H16.5C17.006 8.15264 17.4167 7.74195 17.4167 7.23595C17.4167 6.72995 17.006 6.31934 16.5 6.31934Z" fill="#83EDCB"/>
<path d="M33.9167 6.31934C33.4107 6.31934 33 6.73003 33 7.23603C33 7.74203 33.4107 8.15273 33.9167 8.15273C38.4652 8.15273 42.1667 11.8542 42.1667 16.4027V18.236C42.1667 18.742 42.5774 19.1527 43.0834 19.1527C43.5894 19.1527 44.0001 18.742 44.0001 18.236V16.4027C44 10.8421 39.4753 6.31934 33.9167 6.31934Z" fill="#83EDCB"/>
</g>
<defs>
<clipPath id="clip0_47_919">
<rect width="44" height="44" fill="white"/>
</clipPath>
</defs>
</svg>
