<svg width="44" height="44" viewBox="0 0 44 44" fill="none" xmlns="http://www.w3.org/2000/svg">
<g clip-path="url(#clip0_47_903)">
<path d="M15.1931 0H5.08819C2.28259 0 0 2.28259 0 5.08819V15.1931C0 17.9987 2.28259 20.2812 5.08819 20.2812H15.1931C17.9987 20.2812 20.2812 17.9987 20.2812 15.1931V5.08819C20.2812 2.28259 17.9987 0 15.1931 0ZM16.8438 15.1931C16.8438 16.1032 16.1032 16.8438 15.1931 16.8438H5.08819C4.17802 16.8438 3.4375 16.1032 3.4375 15.1931V5.08819C3.4375 4.17802 4.17802 3.4375 5.08819 3.4375H15.1931C16.1032 3.4375 16.8438 4.17802 16.8438 5.08819V15.1931Z" fill="#83EDCB"/>
<path d="M38.8438 0H28.875C26.0318 0 23.7188 2.31309 23.7188 5.15625V15.125C23.7188 17.9682 26.0318 20.2812 28.875 20.2812H38.8438C41.6869 20.2812 44 17.9682 44 15.125V5.15625C44 2.31309 41.6869 0 38.8438 0ZM40.5625 15.125C40.5625 16.0727 39.7915 16.8438 38.8438 16.8438H28.875C27.9273 16.8438 27.1562 16.0727 27.1562 15.125V5.15625C27.1562 4.20853 27.9273 3.4375 28.875 3.4375H38.8438C39.7915 3.4375 40.5625 4.20853 40.5625 5.15625V15.125Z" fill="#FF512F"/>
<path d="M15.1931 23.7188H5.08819C2.28259 23.7188 0 26.0013 0 28.8069V38.9118C0 41.7174 2.28259 44 5.08819 44H15.1931C17.9987 44 20.2812 41.7174 20.2812 38.9118V28.8069C20.2812 26.0013 17.9987 23.7188 15.1931 23.7188ZM16.8438 38.9118C16.8438 39.822 16.1032 40.5625 15.1931 40.5625H5.08819C4.17802 40.5625 3.4375 39.822 3.4375 38.9118V28.8069C3.4375 27.8968 4.17802 27.1562 5.08819 27.1562H15.1931C16.1032 27.1562 16.8438 27.8968 16.8438 28.8069V38.9118Z" fill="#83EDCB"/>
<path d="M38.8438 23.7188H28.875C26.0318 23.7188 23.7188 26.0318 23.7188 28.875V38.8438C23.7188 41.6869 26.0318 44 28.875 44H38.8438C41.6869 44 44 41.6869 44 38.8438V28.875C44 26.0318 41.6869 23.7188 38.8438 23.7188ZM40.5625 38.8438C40.5625 39.7915 39.7915 40.5625 38.8438 40.5625H28.875C27.9273 40.5625 27.1562 39.7915 27.1562 38.8438V28.875C27.1562 27.9273 27.9273 27.1562 28.875 27.1562H38.8438C39.7915 27.1562 40.5625 27.9273 40.5625 28.875V38.8438Z" fill="#83EDCB"/>
</g>
<defs>
<clipPath id="clip0_47_903">
<rect width="44" height="44" fill="white"/>
</clipPath>
</defs>
</svg>
